<svg width="362" height="385" viewBox="0 0 362 385" fill="none" xmlns="http://www.w3.org/2000/svg">
<g filter="url(#filter0_dddd_1090_330)">
<path d="M310.875 220.15C311.196 187.997 283.143 175.403 269.076 173.126C262.967 168.624 262.779 175.805 263.449 179.959C276.953 223.687 300.693 224.973 310.875 220.15Z" fill="#F8F8F8"/>
<path d="M269.076 183.576C271.213 184.915 273.849 186.649 276.711 188.641M304.042 214.523C301.956 209.309 294.843 202.528 287.161 196.404M287.161 196.404C288.367 199.497 290.778 206.565 290.778 210.102M287.161 196.404C283.655 193.609 280.031 190.951 276.711 188.641M276.711 188.641C281.4 189.375 291.502 191.399 294.396 193.624M269.076 173.126C283.143 175.403 311.196 187.997 310.875 220.15C300.693 224.973 276.953 223.687 263.449 179.959C262.779 175.805 262.967 168.624 269.076 173.126Z" stroke="#7B7B7B" stroke-width="0.5" stroke-linecap="round"/>
<path d="M146.366 210C150.603 176.398 193.651 169.049 214.646 169.575C224.278 166.14 223.502 173.668 221.91 177.861C195.671 220.684 160.615 217.13 146.366 210Z" fill="#F8F8F8"/>
<path d="M213.116 180.474C209.78 181.43 205.655 182.695 201.159 184.182M157.227 205.54C161.054 200.532 172.494 194.927 184.674 190.124M184.674 190.124C182.45 193.1 177.873 199.976 177.355 203.665M184.674 190.124C190.232 187.932 195.945 185.907 201.159 184.182M201.159 184.182C194.164 183.981 179.031 184.009 174.455 185.732M214.646 169.575C193.651 169.049 150.603 176.398 146.366 210C160.615 217.13 195.671 220.684 221.91 177.861C223.502 173.668 224.278 166.14 214.646 169.575Z" stroke="#7B7B7B" stroke-width="0.5" stroke-linecap="round"/>
<path d="M154.118 128.111C172.767 162.515 200.205 170.58 211.592 170.313C261.43 179.958 243.611 151.824 228.472 136.552C175.741 82.8557 149.161 72.915 142.463 74.6566C136.354 85.9102 147.688 114.982 154.118 128.111Z" fill="#F8F8F8"/>
<path d="M206.367 145.394C205.646 144.755 204.893 144.084 204.112 143.384M150.902 87.5179C153.191 93.7791 166.967 108.295 181.215 122.083M192.665 132.934L183.86 107.614M192.665 132.934C188.959 129.489 185.07 125.813 181.215 122.083M192.665 132.934C196.812 136.79 200.73 140.357 204.112 143.384M181.215 122.083C175.13 122.27 161.193 121.005 154.118 114.446M204.112 143.384C195.083 141.91 174.535 138.079 164.568 134.542M211.592 170.313C200.205 170.58 172.767 162.515 154.118 128.111C147.688 114.982 136.354 85.9102 142.463 74.6566C149.161 72.915 175.741 82.8557 228.472 136.552C243.611 151.824 261.43 179.958 211.592 170.313Z" stroke="#7B7B7B" stroke-width="0.5" stroke-linecap="round"/>
<path d="M315.141 128.111C296.492 162.515 269.055 170.58 257.667 170.313C207.829 179.958 225.648 151.824 240.787 136.552C293.519 82.8557 320.098 72.915 326.797 74.6566C332.906 85.9102 321.572 114.982 315.141 128.111Z" fill="#F8F8F8"/>
<path d="M262.893 145.394C263.613 144.755 264.366 144.084 265.148 143.384M318.357 87.5179C316.069 93.7791 302.293 108.295 288.044 122.083M276.595 132.934L285.4 107.614M276.595 132.934C280.301 129.489 284.19 125.813 288.044 122.083M276.595 132.934C272.447 136.79 268.53 140.357 265.148 143.384M288.044 122.083C294.129 122.27 308.067 121.005 315.141 114.446M265.148 143.384C274.176 141.91 294.724 138.079 304.692 134.542M257.667 170.313C269.055 170.58 296.492 162.515 315.141 128.111C321.572 114.982 332.906 85.9102 326.797 74.6566C320.098 72.915 293.519 82.8557 240.787 136.552C225.648 151.824 207.829 179.958 257.667 170.313Z" stroke="#7B7B7B" stroke-width="0.5" stroke-linecap="round"/>
<path d="M227.071 338.767C227.071 342.253 209.028 355.625 203.15 356.017C199.985 356.588 193.155 356.249 190.212 351.313C189.289 349.764 189.627 347.711 190.033 346.301C190.215 346.599 189.9 346.473 191.792 347.394C193.314 348.136 193.364 348.294 196.497 349.355C196.919 349.498 200.678 351.125 201.161 351.174C208.693 351.939 227.244 335.24 227.244 335.24C227.244 335.24 227.071 338.697 227.071 338.767Z" fill="#808A49"/>
<path d="M196.334 339.489C199.394 337.169 202.978 334.062 204.326 330.925C204.691 330.078 205.311 326.664 205.193 324.539C205.782 324.72 206.463 324.908 207.214 325.094C212.808 326.473 222.335 327.676 227.619 324.221C227.967 329.903 227.244 335.24 227.244 335.24C227.244 335.24 208.693 351.939 201.161 351.174C200.678 351.125 196.919 349.498 196.497 349.355C193.364 348.294 193.314 348.136 191.792 347.394C189.9 346.473 190.215 346.599 190.033 346.301C190.922 343.217 194.19 340.661 196.334 339.489Z" fill="#F6C09C"/>
<path d="M201.536 294.928C198.798 279.736 202.813 271.939 205.163 269.939L227.931 283.164C227.6 289.579 227.275 298.878 227.244 307.957L222.023 312.773C219.412 315.181 218.144 314.338 217.836 313.615C218.717 310.957 219.951 305.725 217.843 306.059C215.208 306.476 213.534 309.027 213.429 311.641C213.323 314.255 214.556 316.137 213.239 316.346C212.185 316.513 207.325 320.123 205.027 321.907C204.608 315.952 203.687 306.861 201.536 294.928Z" fill="#F6C09C"/>
<path d="M227.619 324.221C222.335 327.676 212.808 326.473 207.214 325.094C208.309 323.188 211.816 319.169 217.086 318.334C217.789 320.37 220.363 324.069 225.031 322.582C225.422 321.55 225.015 319.073 220.265 317.415L227.25 311.838C227.28 316.252 227.391 320.503 227.619 324.221Z" fill="#F6C09C"/>
<path d="M207.214 325.094C206.463 324.908 205.782 324.72 205.193 324.539C205.148 323.744 205.094 322.866 205.027 321.907C207.325 320.123 212.185 316.513 213.239 316.346C214.556 316.137 213.323 314.255 213.429 311.641C213.534 309.027 215.208 306.476 217.843 306.059C219.951 305.725 218.717 310.957 217.836 313.615C218.144 314.338 219.412 315.181 222.023 312.773L227.244 307.957C227.24 309.258 227.242 310.555 227.25 311.838L220.265 317.415C225.015 319.073 225.422 321.55 225.031 322.582C220.363 324.069 217.789 320.37 217.086 318.334C211.816 319.169 208.309 323.188 207.214 325.094Z" fill="#808A49"/>
<path d="M202.586 340.265C202.628 339.22 205.577 337.506 202.15 331.608C200.728 332.248 197.883 334.839 197.881 340.075C197.88 341.573 198.471 342.766 199.4 343.708C201.719 346.059 206.143 346.849 208.724 346.92L211.012 345.58L212.099 344.577C211.082 343.837 208.524 342.338 206.433 342.253C205.491 342.215 203.585 341.841 202.801 340.678C202.715 340.55 202.642 340.413 202.586 340.265Z" fill="#808A49"/>
<path d="M232.566 304.559C233.919 305.589 233.045 307.079 232.439 307.695L227.25 311.838C227.242 310.555 227.24 309.258 227.244 307.957L229.094 306.251C229.687 305.257 231.212 303.528 232.566 304.559Z" fill="#808A49"/>
<path d="M227.244 335.24C227.244 335.24 227.071 338.697 227.071 338.767C227.071 342.253 209.028 355.625 203.15 356.017C199.985 356.588 193.155 356.249 190.212 351.313C189.289 349.764 189.627 347.711 190.033 346.301M227.244 335.24C227.244 335.24 227.967 329.903 227.619 324.221M227.244 335.24C227.244 335.24 208.693 351.939 201.161 351.174C200.678 351.125 196.919 349.498 196.497 349.355M196.497 349.355C193.364 348.294 193.314 348.136 191.792 347.394M196.497 349.355L197.881 348.534L198.849 347.786M190.033 346.301C190.922 343.217 194.19 340.661 196.334 339.489C199.394 337.169 202.978 334.062 204.326 330.925C204.691 330.078 205.311 326.664 205.193 324.539M190.033 346.301C190.215 346.599 189.9 346.473 191.792 347.394M195.712 344.258L193.601 345.58L191.792 347.394M197.281 346.218L196.104 347.002L194.144 348.534M205.193 324.539C205.782 324.72 206.463 324.908 207.214 325.094M205.193 324.539C205.148 323.744 205.094 322.866 205.027 321.907M227.619 324.221C222.335 327.676 212.808 326.473 207.214 325.094M227.619 324.221C227.391 320.503 227.28 316.252 227.25 311.838M207.214 325.094C208.309 323.188 211.816 319.169 217.086 318.334M217.086 318.334C217.789 320.37 220.363 324.069 225.031 322.582C225.422 321.55 225.015 319.073 220.265 317.415M217.086 318.334C217.086 318.334 217.752 317.28 218.446 317.08C219.14 316.879 220.265 317.415 220.265 317.415M220.265 317.415L227.25 311.838M229.094 306.251C229.687 305.257 231.212 303.528 232.566 304.559C233.919 305.589 233.045 307.079 232.439 307.695L227.25 311.838M229.094 306.251C227.825 307.422 224.634 310.365 222.023 312.773M229.094 306.251L227.244 307.957M222.023 312.773C219.412 315.181 218.144 314.338 217.836 313.615M222.023 312.773L227.244 307.957M217.836 313.615C218.717 310.957 219.951 305.725 217.843 306.059C215.208 306.476 213.534 309.027 213.429 311.641C213.323 314.255 214.556 316.137 213.239 316.346M217.836 313.615C217.836 313.615 216.92 315.373 215.874 315.929C214.954 316.418 213.239 316.346 213.239 316.346M213.239 316.346C212.185 316.513 207.325 320.123 205.027 321.907M205.027 321.907C204.608 315.952 203.687 306.861 201.536 294.928C198.798 279.736 202.813 271.939 205.163 269.939L227.931 283.164C227.6 289.579 227.275 298.878 227.244 307.957M227.244 307.957C227.24 309.258 227.242 310.555 227.25 311.838M220.004 343.325C217.008 341.895 209.747 339.298 204.677 340.35C204.145 340.59 203.219 340.892 202.801 340.678M202.801 340.678C202.66 340.606 202.577 340.476 202.586 340.265M202.801 340.678C203.585 341.841 205.491 342.215 206.433 342.253C208.524 342.338 211.082 343.837 212.099 344.577L211.012 345.58L208.724 346.92C206.143 346.849 201.719 346.059 199.4 343.708M202.801 340.678C202.715 340.55 202.642 340.413 202.586 340.265M202.586 340.265C202.628 339.22 205.577 337.506 202.15 331.608C200.728 332.248 197.883 334.839 197.881 340.075C197.88 341.573 198.471 342.766 199.4 343.708M199.4 343.708L202.816 341.06" stroke="#606B3B" stroke-width="0.5"/>
<path d="M245.383 338.767C245.384 342.253 263.426 355.625 269.304 356.017C272.469 356.588 279.3 356.249 282.243 351.313C283.166 349.764 282.827 347.711 282.421 346.301C282.239 346.599 282.555 346.473 280.663 347.394C279.14 348.136 279.091 348.294 275.958 349.355C275.535 349.498 271.776 351.125 271.294 351.174C263.762 351.939 245.21 335.24 245.21 335.24C245.21 335.24 245.383 338.697 245.383 338.767Z" fill="#808A49"/>
<path d="M276.121 339.489C273.06 337.169 269.477 334.062 268.128 330.925C267.764 330.078 267.143 326.664 267.262 324.539C266.672 324.72 265.992 324.908 265.24 325.094C259.647 326.473 250.12 327.676 244.836 324.221C244.488 329.903 245.21 335.24 245.21 335.24C245.21 335.24 263.762 351.939 271.294 351.174C271.776 351.125 275.535 349.498 275.958 349.355C279.091 348.294 279.14 348.136 280.663 347.394C282.555 346.473 282.239 346.599 282.421 346.301C281.533 343.217 278.265 340.661 276.121 339.489Z" fill="#F6C09C"/>
<path d="M270.919 294.928C273.657 279.736 269.642 271.939 267.292 269.939L244.524 283.164C244.855 289.579 245.18 298.878 245.21 307.957L250.431 312.773C253.042 315.181 254.311 314.338 254.619 313.615C253.738 310.957 252.503 305.725 254.611 306.059C257.247 306.476 258.92 309.027 259.026 311.641C259.131 314.255 257.898 316.137 259.216 316.346C260.27 316.513 265.13 320.123 267.428 321.907C267.847 315.952 268.768 306.861 270.919 294.928Z" fill="#F6C09C"/>
<path d="M244.836 324.221C250.12 327.676 259.647 326.473 265.24 325.094C264.145 323.188 260.639 319.169 255.369 318.334C254.665 320.37 252.092 324.069 247.424 322.582C247.033 321.55 247.439 319.073 252.19 317.415L245.204 311.838C245.175 316.252 245.063 320.503 244.836 324.221Z" fill="#F6C09C"/>
<path d="M265.24 325.094C265.992 324.908 266.672 324.72 267.262 324.539C267.306 323.744 267.36 322.866 267.428 321.907C265.13 320.123 260.27 316.513 259.216 316.346C257.898 316.137 259.131 314.255 259.026 311.641C258.92 309.027 257.247 306.476 254.611 306.059C252.503 305.725 253.738 310.957 254.619 313.615C254.311 314.338 253.042 315.181 250.431 312.773L245.21 307.957C245.214 309.258 245.213 310.555 245.204 311.838L252.19 317.415C247.439 319.073 247.033 321.55 247.424 322.582C252.092 324.069 254.665 320.37 255.369 318.334C260.639 319.169 264.145 323.188 265.24 325.094Z" fill="#808A49"/>
<path d="M269.869 340.265C269.826 339.22 266.877 337.506 270.305 331.608C271.727 332.248 274.572 334.839 274.574 340.075C274.574 341.573 273.983 342.766 273.055 343.708C270.736 346.059 266.312 346.849 263.73 346.92L261.443 345.58L260.355 344.577C261.373 343.837 263.93 342.338 266.022 342.253C266.964 342.215 268.87 341.841 269.654 340.678C269.74 340.55 269.812 340.413 269.869 340.265Z" fill="#808A49"/>
<path d="M239.889 304.559C238.535 305.589 239.409 307.079 240.015 307.695L245.204 311.838C245.213 310.555 245.214 309.258 245.21 307.957L243.361 306.251C242.767 305.257 241.242 303.528 239.889 304.559Z" fill="#808A49"/>
<path d="M245.21 335.24C245.21 335.24 245.383 338.697 245.383 338.767C245.384 342.253 263.426 355.625 269.304 356.017C272.469 356.588 279.3 356.249 282.243 351.313C283.166 349.764 282.827 347.711 282.421 346.301M245.21 335.24C245.21 335.24 244.488 329.903 244.836 324.221M245.21 335.24C245.21 335.24 263.762 351.939 271.294 351.174C271.776 351.125 275.535 349.498 275.958 349.355M275.958 349.355C279.091 348.294 279.14 348.136 280.663 347.394M275.958 349.355L274.574 348.534L273.606 347.786M282.421 346.301C281.533 343.217 278.265 340.661 276.121 339.489C273.06 337.169 269.477 334.062 268.128 330.925C267.764 330.078 267.143 326.664 267.262 324.539M282.421 346.301C282.239 346.599 282.555 346.473 280.663 347.394M276.742 344.258L278.854 345.58L280.663 347.394M275.174 346.218L276.35 347.002L278.31 348.534M267.262 324.539C266.672 324.72 265.992 324.908 265.24 325.094M267.262 324.539C267.306 323.744 267.36 322.866 267.428 321.907M244.836 324.221C250.12 327.676 259.647 326.473 265.24 325.094M244.836 324.221C245.063 320.503 245.175 316.252 245.204 311.838M265.24 325.094C264.145 323.188 260.639 319.169 255.369 318.334M255.369 318.334C254.665 320.37 252.092 324.069 247.424 322.582C247.033 321.55 247.439 319.073 252.19 317.415M255.369 318.334C255.369 318.334 254.703 317.28 254.009 317.08C253.315 316.879 252.19 317.415 252.19 317.415M252.19 317.415L245.204 311.838M243.361 306.251C242.767 305.257 241.242 303.528 239.889 304.559C238.535 305.589 239.409 307.079 240.015 307.695L245.204 311.838M243.361 306.251C244.63 307.422 247.821 310.365 250.431 312.773M243.361 306.251L245.21 307.957M250.431 312.773C253.042 315.181 254.311 314.338 254.619 313.615M250.431 312.773L245.21 307.957M254.619 313.615C253.738 310.957 252.503 305.725 254.611 306.059C257.247 306.476 258.92 309.027 259.026 311.641C259.131 314.255 257.898 316.137 259.216 316.346M254.619 313.615C254.619 313.615 255.535 315.373 256.581 315.929C257.501 316.418 259.216 316.346 259.216 316.346M259.216 316.346C260.27 316.513 265.13 320.123 267.428 321.907M267.428 321.907C267.847 315.952 268.768 306.861 270.919 294.928C273.657 279.736 269.642 271.939 267.292 269.939L244.524 283.164C244.855 289.579 245.18 298.878 245.21 307.957M245.21 307.957C245.214 309.258 245.213 310.555 245.204 311.838M252.45 343.325C255.447 341.895 262.708 339.298 267.777 340.35C268.31 340.59 269.236 340.892 269.654 340.678M269.654 340.678C269.794 340.606 269.877 340.476 269.869 340.265M269.654 340.678C268.87 341.841 266.964 342.215 266.022 342.253C263.93 342.338 261.373 343.837 260.355 344.577L261.443 345.58L263.73 346.92C266.312 346.849 270.736 346.059 273.055 343.708M269.654 340.678C269.74 340.55 269.812 340.413 269.869 340.265M269.869 340.265C269.826 339.22 266.877 337.506 270.305 331.608C271.727 332.248 274.572 334.839 274.574 340.075C274.574 341.573 273.983 342.766 273.055 343.708M273.055 343.708L269.639 341.06" stroke="#606B3B" stroke-width="0.5"/>
<path d="M221.273 138.03C230.055 138.03 231.123 131.248 231.645 126.674V118.833L252.638 118.426C253.16 120.125 254.206 123.837 254.206 125.091C254.206 126.66 259.695 135.677 263.223 137.637C266.752 139.598 274.015 138.828 278.328 139.22C281.778 139.534 280.288 139.206 283.817 138.436H286.954C291.266 139.22 301.146 148.07 303.028 149.011C304.91 149.952 307.471 147.312 308.517 145.874C318.554 136.465 322.108 128.111 323.023 125.89L322.239 109.815C322.37 108.508 323.102 106.051 324.984 106.679C327.336 107.463 327.728 110.207 328.512 114.128C329.139 117.264 332.171 110.207 333.609 106.287C334.393 104.065 336.667 99.5433 339.49 99.2296C342.313 98.916 340.143 105.633 338.706 109.031C338.079 112.481 340.013 108.639 341.058 106.287C344.508 100.641 347.2 100.537 348.115 101.19C348.507 102.235 348.664 105.189 346.155 108.639C343.646 112.089 343.541 113.213 343.803 113.344C348.507 108.639 350.729 107.463 351.252 107.463C352.559 107.855 354.467 109.423 351.644 112.56C348.821 115.696 347.331 118.31 346.939 119.225C350.389 116.088 352.82 115.304 353.604 115.304C354.388 115.566 355.721 116.559 354.78 118.441C353.604 120.793 343.803 130.987 340.274 132.555C337.451 133.81 336.223 136.214 335.961 137.26C334.079 146.356 324.199 160.391 319.495 166.272C313.222 172.153 309.615 173.251 303.028 172.937C296.441 172.624 284.078 165.358 278.328 161.96L272.633 166.65L243.228 168.218L217.744 163.514C217.744 163.514 209.584 180.365 202.651 190.188C195.853 199.821 181.48 213.32 181.48 213.32L169.326 224.69C168.692 228.767 165.408 231.355 163.846 232.139C163.454 232.792 161.964 234.256 159.141 234.883C156.318 235.511 156.135 233.838 156.397 232.923C153.26 234.178 152.476 231.878 152.476 230.571C148.399 231.825 148.163 228.35 148.555 226.455C146.199 226.456 144.405 224.981 145.807 221.945C150.512 211.752 158.353 211.229 161.49 210.575C164.234 207.439 177.957 190.188 195.202 154.118C201.214 147.453 212.49 138.03 221.273 138.03Z" fill="#F6C09C"/>
<path d="M145.807 221.945C150.512 211.752 158.353 211.229 161.49 210.575C164.234 207.439 177.957 190.188 195.202 154.118C201.214 147.453 212.49 138.03 221.273 138.03C230.055 138.03 231.123 131.248 231.645 126.674V118.833L252.638 118.426C253.16 120.125 254.206 123.837 254.206 125.091C254.206 126.66 259.695 135.677 263.223 137.637C266.752 139.598 274.015 138.828 278.328 139.22C281.778 139.534 280.288 139.206 283.817 138.436H286.954C291.266 139.22 301.146 148.07 303.028 149.011C304.91 149.952 307.471 147.312 308.517 145.874C318.554 136.465 322.108 128.111 323.023 125.89L322.239 109.815C322.37 108.508 323.102 106.051 324.984 106.679C327.336 107.463 327.728 110.207 328.512 114.128C329.139 117.264 332.171 110.207 333.609 106.287C334.393 104.065 336.667 99.5433 339.49 99.2296C342.313 98.916 340.143 105.633 338.706 109.031C338.078 112.481 340.013 108.639 341.058 106.287C344.508 100.641 347.2 100.537 348.115 101.19C348.507 102.235 348.664 105.189 346.155 108.639C343.646 112.089 343.541 113.213 343.803 113.344C348.507 108.639 350.729 107.463 351.252 107.463C352.559 107.855 354.467 109.423 351.644 112.56C348.821 115.696 347.331 118.31 346.939 119.225C350.389 116.088 352.82 115.304 353.604 115.304C354.388 115.566 355.721 116.559 354.78 118.441C353.604 120.793 343.803 130.987 340.274 132.555C337.451 133.81 336.223 136.214 335.961 137.26C334.079 146.356 324.199 160.391 319.495 166.272C313.222 172.153 309.615 173.251 303.028 172.937C296.441 172.624 284.078 165.358 278.328 161.96L272.633 166.65L243.228 168.218L217.744 163.514C217.744 163.514 209.584 180.365 202.651 190.188C195.853 199.821 181.48 213.32 181.48 213.32L169.326 224.69C168.692 228.767 165.408 231.355 163.846 232.139M145.807 221.945C149.335 221.292 155.923 220.691 154.043 223.514M145.807 221.945C144.405 224.981 146.199 226.456 148.555 226.455M154.043 223.514C152.806 225.458 150.491 226.455 148.555 226.455M154.043 223.514C156.001 223.121 157.573 223.906 157.573 225.474C157.573 225.745 157.414 226.082 157.148 226.455M148.555 226.455C148.163 228.35 148.399 231.825 152.476 230.571M152.476 230.571C152.476 231.878 153.26 234.178 156.397 232.923M152.476 230.571C153.808 229.649 156.184 227.811 157.148 226.455M156.397 232.923C156.135 233.838 156.318 235.511 159.141 234.883C161.964 234.256 163.454 232.792 163.846 232.139M156.397 232.923C157.811 232.114 160.274 230.443 161.17 229.002M157.148 226.455C158.393 225.084 161.101 225.866 161.49 227.826C161.56 228.181 161.432 228.582 161.17 229.002M163.846 232.139C164.153 230.963 164.048 228.689 161.17 229.002" stroke="#B7947D" stroke-width="0.5"/>
<path d="M328.693 114.678C329.964 115.747 330.793 117.475 331.257 118.989C331.72 120.505 331.87 121.981 331.865 122.882L331.573 122.881C331.578 122.007 331.432 120.56 330.978 119.075C330.523 117.588 329.716 115.919 328.505 114.901L328.693 114.678ZM335.17 111.765C337.362 112.836 342.4 116.943 345.583 120.59L345.364 120.782C342.217 117.178 337.219 113.092 335.041 112.027L335.17 111.765Z" fill="#B7947D"/>
<path d="M115.935 193.862C116.271 193.234 117.077 193.039 117.659 193.446C122.299 196.693 138.087 207.796 148.373 215.725C149.54 216.624 150.73 217.805 151.973 219.03C153.211 220.25 154.498 221.511 155.84 222.545C159.044 225.015 162.165 226.891 163.733 227.786C164.414 228.175 165.072 228.596 165.689 229.071L176.851 237.676C178.096 238.635 178.327 240.422 177.368 241.667C176.407 242.913 174.617 243.142 173.373 242.18L155.604 228.428L154.175 227.324C151.601 225.055 148.865 222.976 145.991 221.101L142.712 218.962L140.838 217.518L116.188 195.307C115.782 194.94 115.677 194.344 115.935 193.862Z" fill="#926841" stroke="#4B4B4B" stroke-width="0.5"/>
<path d="M117.744 199.243C116.703 199.966 115.404 199.305 114.206 198.22C116.634 195.509 117.47 194.424 118.966 190.983C118.966 190.983 120.629 192.03 121.016 192.969C121.35 193.78 121.033 194.599 121.033 194.599C120.727 195.681 118.785 198.519 117.744 199.243Z" fill="#B1885B" stroke="#4B4B4B" stroke-width="0.5"/>
<path d="M102.165 191.624L114.265 198.096L116.966 195.539L118.84 191.206L107.898 180.907L97.7514 179.926L102.165 191.624Z" fill="url(#paint0_radial_1090_330)" stroke="#2B5120"/>
<path d="M280.288 87.8492C280.288 109.719 262.735 127.448 241.082 127.448C219.429 127.448 201.876 109.719 201.876 87.8492C201.876 65.9797 219.429 48.2509 241.082 48.2509C262.735 48.2509 280.288 65.9797 280.288 87.8492Z" fill="#F6C09C"/>
<path d="M279.72 87.8492C279.72 66.2925 262.419 48.8219 241.082 48.8219C219.745 48.8219 202.444 66.2925 202.444 87.8492C202.444 109.406 219.745 126.876 241.082 126.876V127.447L240.575 127.444C219.156 127.17 201.876 109.548 201.876 87.8492C201.876 65.9797 219.429 48.2509 241.082 48.2509L241.588 48.2543C263.008 48.5281 280.288 66.1504 280.288 87.8492L280.285 88.3611C280.014 109.995 262.566 127.447 241.082 127.447V126.876C262.419 126.876 279.72 109.406 279.72 87.8492Z" fill="#DBA988"/>
<path d="M228.601 85.7793C230.7 85.3141 233.182 85.4607 235.443 87.1415C235.821 87.4228 235.901 87.9589 235.621 88.3392C235.341 88.7194 234.808 88.7995 234.43 88.5183C232.66 87.2024 230.714 87.065 228.967 87.4521C227.197 87.8442 225.696 88.7649 224.946 89.4455C224.597 89.7624 224.059 89.7349 223.743 89.384C223.428 89.0329 223.456 88.4909 223.805 88.174C224.76 87.3067 226.524 86.2393 228.601 85.7793Z" fill="#2F2725"/>
<path d="M223.476 76.6287C224.941 76.1028 226.501 75.9265 228.037 76.1263C228.12 76.1381 228.206 76.1508 228.292 76.1654L228.546 76.2139C228.622 76.2307 228.694 76.2676 228.748 76.326C228.802 76.3843 228.832 76.4584 228.832 76.5351C228.832 76.6117 228.802 76.6858 228.748 76.7442C228.694 76.8026 228.622 76.8394 228.546 76.8562C228.394 76.8919 228.232 76.931 228.081 76.9711C226.685 77.3429 225.351 77.775 224.053 78.2402C222.758 78.713 221.499 79.2233 220.285 79.9648C220.15 80.0479 220.017 80.1332 219.883 80.223C219.819 80.2669 219.742 80.2948 219.663 80.2938C219.584 80.2929 219.51 80.2639 219.455 80.2113C219.399 80.1586 219.366 80.0854 219.361 80.0061C219.356 79.9267 219.38 79.8484 219.42 79.7814C219.511 79.6329 219.608 79.4883 219.711 79.347C220.643 78.0716 222.02 77.1539 223.476 76.6287Z" fill="#8C6B50"/>
<path d="M262.254 82.7926C264.293 82.3704 266.691 82.6274 268.937 84.4292C269.305 84.7242 269.365 85.2629 269.072 85.6327C268.778 86.0023 268.242 86.0628 267.875 85.7678C266.082 84.3297 264.219 84.1343 262.598 84.4698C260.944 84.8124 259.558 85.7095 258.849 86.4065C258.512 86.737 257.973 86.7306 257.644 86.3922C257.315 86.0538 257.321 85.5115 257.658 85.181C258.577 84.2781 260.249 83.2077 262.254 82.7926Z" fill="#2F2725"/>
<path d="M266.845 73.6514C268.327 74.1277 269.673 74.9399 270.773 76.0361C270.832 76.0963 270.893 76.1589 270.952 76.2228L271.124 76.4161C271.175 76.4758 271.21 76.5495 271.218 76.6287C271.225 76.7078 271.205 76.7854 271.158 76.8463C271.112 76.9072 271.043 76.9474 270.965 76.961C270.887 76.9746 270.807 76.9595 270.736 76.9265C270.594 76.8622 270.442 76.7946 270.298 76.7341C268.964 76.1778 267.643 75.7069 266.331 75.2843C265.016 74.8694 263.708 74.507 262.296 74.3553C262.138 74.3389 261.98 74.3252 261.82 74.315C261.742 74.3106 261.665 74.286 261.602 74.2369C261.54 74.188 261.499 74.1196 261.486 74.0441C261.474 73.9684 261.492 73.89 261.536 73.8238C261.58 73.7576 261.646 73.7099 261.718 73.6811C261.88 73.6187 262.045 73.5629 262.212 73.5137C263.723 73.0689 265.371 73.1801 266.845 73.6514Z" fill="#8C6B50"/>
<path d="M231.291 100.623C231.291 102.739 227.877 104.455 223.667 104.455C219.457 104.455 216.044 102.739 216.044 100.623C216.044 98.5062 219.457 96.7905 223.667 96.7905C227.877 96.7905 231.291 98.5062 231.291 100.623Z" fill="#F2A088"/>
<path d="M274.484 98.0684C274.484 100.185 271.721 101.901 268.313 101.901C264.904 101.901 262.141 100.185 262.141 98.0684C262.141 95.952 264.904 94.2363 268.313 94.2363C271.721 94.2363 274.484 95.952 274.484 98.0684Z" fill="#F2A088"/>
<path d="M256.481 107.367C254.87 115.888 241.745 118.551 239.443 107.367C243.357 108.698 252.26 108.61 256.481 107.367Z" fill="#FDFDFD"/>
<path d="M256.873 106.945C256.727 106.811 256.521 106.763 256.332 106.819C254.296 107.419 251.076 107.75 247.855 107.761C244.629 107.772 241.501 107.461 239.635 106.826C239.442 106.761 239.229 106.804 239.077 106.94C238.924 107.075 238.856 107.283 238.897 107.483C239.496 110.392 240.812 112.454 242.52 113.741C244.224 115.025 246.274 115.502 248.281 115.325C252.274 114.973 256.191 112.014 257.049 107.474C257.086 107.278 257.019 107.078 256.873 106.945ZM255.711 108.157C254.646 111.633 251.455 113.899 248.181 114.188C246.418 114.343 244.655 113.922 243.201 112.827C241.925 111.865 240.853 110.358 240.237 108.185C242.272 108.686 245.074 108.913 247.859 108.903C250.685 108.894 253.569 108.641 255.711 108.157Z" fill="#8C6B50"/>
<path d="M248.453 87.467C248.764 87.4224 249.052 87.6394 249.096 87.9515C249.236 88.9347 249.293 89.8333 249.339 90.6135C249.385 91.4067 249.417 92.0485 249.502 92.5707C249.588 93.0983 249.713 93.401 249.872 93.5749C250.005 93.722 250.229 93.8481 250.712 93.8481C251.64 93.8481 252.407 94.1078 252.983 94.5641C253.557 95.0195 253.907 95.6437 254.043 96.311C254.314 97.6323 253.762 99.1443 252.479 100.004C252.01 100.318 251.666 100.545 251.392 100.702C251.113 100.862 250.873 100.969 250.611 101.02C250.356 101.071 250.117 101.06 249.876 101.047C249.627 101.033 249.331 101.012 248.897 101.012C248.583 101.012 248.329 100.756 248.329 100.441C248.329 100.126 248.583 99.8703 248.897 99.8702C249.369 99.8702 249.7 99.8932 249.938 99.9064C250.185 99.92 250.294 99.9191 250.392 99.8997C250.484 99.8817 250.602 99.8399 250.83 99.7096C251.062 99.5764 251.372 99.3732 251.849 99.0538C252.744 98.4537 253.109 97.4103 252.931 96.5419C252.843 96.1144 252.626 95.7351 252.28 95.4607C251.935 95.187 251.426 94.9901 250.712 94.9901C250.015 94.9901 249.444 94.797 249.034 94.3455C248.647 93.9206 248.477 93.3447 248.381 92.7547C248.285 92.1592 248.249 91.4438 248.205 90.6804C248.16 89.9039 248.104 89.046 247.971 88.1132C247.927 87.8011 248.143 87.5116 248.453 87.467Z" fill="#8C6B50"/>
<path d="M209.026 199.44C204.361 200.936 192.786 209.024 183.804 229.408C172.577 254.889 169.071 260.572 160.834 263.795C156 265.687 165.367 266.668 175.483 266.281C182.604 266.009 190.097 265.058 193.267 263.27C193.504 263.137 193.748 262.997 193.998 262.853C200.236 259.251 210.462 252.389 214.952 249.298C213.67 243.42 215.212 226.285 231.636 204.769C227.497 204.354 223.313 203.676 219.177 202.669C215.743 201.832 212.342 200.769 209.026 199.44Z" fill="#859A55"/>
<path fill-rule="evenodd" clip-rule="evenodd" d="M258.128 204.285C258.922 215.26 263.22 233.743 273.269 249.235C279.37 258.64 287.635 267.246 298.624 273.072C302.958 275.37 307.715 277.235 312.93 278.547C308.155 270.543 298.466 252.02 297.901 241.955C297.195 229.374 284.949 208.619 276.569 200.366C272.354 201.746 265.868 203.298 258.128 204.285Z" fill="#D9C6A7"/>
<path fill-rule="evenodd" clip-rule="evenodd" d="M258.128 204.285C258.922 215.26 263.22 233.743 273.269 249.235C279.37 258.64 287.635 267.246 298.624 273.072C302.958 275.37 307.715 277.235 312.93 278.547C308.155 270.543 298.466 252.02 297.901 241.955C297.195 229.374 284.949 208.619 276.569 200.366C272.354 201.746 265.868 203.298 258.128 204.285Z" fill="url(#paint1_linear_1090_330)"/>
<path d="M237.427 258.996C243.917 252.071 254.803 240.122 257.125 231.843C258.982 225.219 258.526 210.437 258.128 204.285C251.931 205.076 244.931 205.505 237.648 205.195C235.661 205.11 233.654 204.971 231.636 204.769C215.212 226.285 213.67 243.42 214.952 249.298C215.053 250.955 215.149 253.109 215.198 255.383L215.203 255.604C215.319 261.359 215.125 267.799 213.937 268.879C212.341 270.329 223.071 267.846 231.132 263.513C233.639 262.165 235.887 260.639 237.427 258.996Z" fill="#98A754"/>
<path d="M257.125 231.843C254.803 240.122 243.917 252.071 237.427 258.996C235.887 260.639 233.639 262.165 231.132 263.513C231.708 268.452 232.923 276.457 234.648 283.881C236.189 290.513 238.137 296.681 240.4 299.783L243.544 304.86C248.885 300.897 257.625 292.016 264.292 279.415C267.7 272.973 270.566 265.559 272.159 257.332C272.666 254.713 273.044 252.013 273.269 249.235C263.22 233.743 258.922 215.26 258.128 204.285C258.526 210.437 258.982 225.219 257.125 231.843Z" fill="url(#paint2_linear_1090_330)"/>
<path d="M273.269 249.235C273.044 252.013 272.666 254.713 272.159 257.332C273.134 262.782 276.999 273.131 285.44 282.935C289.756 287.947 295.268 292.817 302.201 296.816C301.36 289.477 299.467 274.454 298.624 273.072C287.635 267.246 279.37 258.64 273.269 249.235Z" fill="url(#paint3_linear_1090_330)"/>
<path d="M214.952 249.298C210.462 252.389 200.236 259.251 193.998 262.853L195.328 271.682L196.829 284.54L198.057 295.06C201.453 293.94 207.827 290.466 214.976 283.789C220.235 278.877 225.912 272.231 231.132 263.513C223.071 267.846 212.341 270.329 213.937 268.879C215.125 267.799 215.319 261.359 215.203 255.604L215.198 255.383C215.149 253.109 215.053 250.955 214.952 249.298Z" fill="#859A55"/>
<path d="M214.952 249.298C210.462 252.389 200.236 259.251 193.998 262.853L195.328 271.682L196.829 284.54L198.057 295.06C201.453 293.94 207.827 290.466 214.976 283.789C220.235 278.877 225.912 272.231 231.132 263.513C223.071 267.846 212.341 270.329 213.937 268.879C215.125 267.799 215.319 261.359 215.203 255.604L215.198 255.383C215.149 253.109 215.053 250.955 214.952 249.298Z" fill="url(#paint4_linear_1090_330)"/>
<path d="M246.903 163.997C241.038 158.405 222.772 137.7 220.294 138.034C208.667 139.602 200.403 140.721 200.55 147.835C204.002 149.694 208.876 159.497 207.296 161.638C205.86 163.583 207.44 183.511 208.667 195.926C217.397 199.104 238.254 203.308 261.343 199.315C261.985 199.204 262.628 199.087 263.273 198.963C264.295 198.767 265.32 198.554 266.349 198.324C264.634 191.879 261.997 185.924 259.144 180.788C257.338 177.536 255.444 174.613 253.643 172.101C251.016 168.438 248.584 165.65 246.903 163.997Z" fill="url(#paint5_linear_1090_330)"/>
<path fill-rule="evenodd" clip-rule="evenodd" d="M276.569 200.366L275.813 195.722C272.647 196.764 269.484 197.624 266.349 198.324C265.32 198.554 264.295 198.767 263.273 198.963C262.628 199.087 261.985 199.204 261.343 199.315C238.254 203.308 217.397 199.104 208.667 195.926C208.792 197.183 208.912 198.364 209.026 199.44C212.342 200.769 215.743 201.832 219.177 202.669C223.313 203.676 227.497 204.354 231.636 204.769C233.654 204.971 235.661 205.11 237.648 205.195C244.931 205.505 251.931 205.076 258.128 204.285C265.868 203.298 272.354 201.746 276.569 200.366ZM272.159 257.332C273.134 262.782 276.999 273.131 285.44 282.935C284.99 288.368 282.707 299.691 281.622 304.674C272.344 299.411 266.203 285.642 264.292 279.415C267.7 272.973 270.566 265.559 272.159 257.332ZM234.648 283.881C232.923 276.457 231.708 268.452 231.132 263.513C225.912 272.231 220.235 278.877 214.976 283.789L218.188 305.112C222.506 301.212 231.842 291.506 234.648 283.881ZM196.829 284.54L186.137 292.083C185.58 292.476 184.82 292.018 184.908 291.341L186.508 278.932C176.305 285.068 162.661 289.238 165.444 286.493C168.482 283.498 173.402 271.77 175.483 266.281C182.604 266.009 190.097 265.058 193.267 263.27C193.504 263.137 193.748 262.997 193.998 262.853L195.328 271.682L196.829 284.54Z" fill="#859A55"/>
<path d="M263.273 137.779C259.747 140.689 253.834 149.473 253.834 149.473C253.834 149.473 247.599 160.721 246.903 163.997C248.584 165.65 251.016 168.438 253.643 172.101C255.444 174.613 257.338 177.536 259.144 180.788C261.997 185.924 264.634 191.879 266.349 198.324C269.484 197.624 272.647 196.764 275.813 195.722L270.672 137.779H263.273Z" fill="#859A55"/>
<path d="M263.273 137.779C259.747 140.689 253.834 149.473 253.834 149.473C253.834 149.473 247.599 160.721 246.903 163.997C248.584 165.65 251.016 168.438 253.643 172.101C255.444 174.613 257.338 177.536 259.144 180.788C261.997 185.924 264.634 191.879 266.349 198.324C269.484 197.624 272.647 196.764 275.813 195.722L270.672 137.779H263.273Z" fill="url(#paint6_linear_1090_330)"/>
<path d="M246.903 163.997C247.599 160.721 253.834 149.473 253.834 149.473C253.834 149.473 259.747 140.689 263.273 137.779H270.672L275.813 195.722M246.903 163.997C241.038 158.405 222.772 137.7 220.294 138.034C208.667 139.602 200.403 140.721 200.55 147.835C204.002 149.694 208.876 159.497 207.296 161.638C205.86 163.583 207.44 183.511 208.667 195.926M246.903 163.997C248.584 165.65 251.016 168.438 253.643 172.101M209.026 199.44C204.361 200.936 192.786 209.024 183.804 229.408C172.577 254.889 169.071 260.572 160.834 263.795C156 265.687 165.367 266.668 175.483 266.281M209.026 199.44C208.912 198.364 208.792 197.183 208.667 195.926M209.026 199.44C212.342 200.769 215.743 201.832 219.177 202.669M214.952 249.298C213.67 243.42 215.212 226.285 231.636 204.769M214.952 249.298C210.462 252.389 200.236 259.251 193.998 262.853M214.952 249.298C215.053 250.955 215.149 253.109 215.198 255.383M213.937 268.879C212.341 270.329 223.071 267.846 231.132 263.513M213.937 268.879C215.125 267.799 215.319 261.359 215.203 255.604M213.937 268.879C215.14 267.786 215.324 261.193 215.198 255.383M257.125 231.843C254.803 240.122 243.917 252.071 237.427 258.996C235.887 260.639 233.639 262.165 231.132 263.513M257.125 231.843C258.982 225.219 258.526 210.437 258.128 204.285M257.125 231.843C257.201 241.479 255.381 265.331 247.485 283.649M258.128 204.285C258.922 215.26 263.22 233.743 273.269 249.235M258.128 204.285C265.868 203.298 272.354 201.746 276.569 200.366M258.128 204.285C251.931 205.076 244.931 205.505 237.648 205.195M276.569 200.366C284.949 208.619 297.195 229.374 297.901 241.955C298.466 252.02 308.155 270.543 312.93 278.547C307.715 277.235 302.958 275.37 298.624 273.072M276.569 200.366L275.813 195.722M276.569 200.366C268.979 202.851 254.028 205.892 237.648 205.195M208.667 195.926C217.397 199.104 238.254 203.308 261.343 199.315M275.813 195.722C272.647 196.764 269.484 197.624 266.349 198.324M222.772 169.615C226.562 174.595 236.22 185.193 244.535 187.747C252.849 190.301 259.205 196.523 261.343 199.315M261.343 199.315C261.985 199.204 262.628 199.087 263.273 198.963M230.908 160.46C236.599 167.532 249.308 182.587 254.614 186.228C259.921 189.87 262.598 196.235 263.273 198.963M263.273 198.963C264.295 198.767 265.32 198.554 266.349 198.324M266.349 198.324C264.634 191.879 261.997 185.924 259.144 180.788M259.144 180.788C261.165 177.972 265.585 172.205 267.089 171.661M259.144 180.788C257.338 177.536 255.444 174.613 253.643 172.101M253.643 172.101C255.435 168.131 259.545 159.476 261.652 156.621M273.488 203.606C277.822 209.561 286.82 224.197 288.145 235.099C289.151 240.895 291.953 253.002 295.118 255.062M181.823 253.1C186.668 247.537 197.197 233.556 200.55 222.128C203.903 210.699 214.365 204.393 219.177 202.669M219.177 202.669C223.313 203.676 227.497 204.354 231.636 204.769M231.636 204.769C233.654 204.971 235.661 205.11 237.648 205.195M175.483 266.281C182.604 266.009 190.097 265.058 193.267 263.27C193.504 263.137 193.748 262.997 193.998 262.853M175.483 266.281C173.402 271.77 168.482 283.498 165.444 286.493C162.661 289.238 176.305 285.068 186.508 278.932M195.328 271.682L193.998 262.853M195.328 271.682C193.485 274.2 190.225 276.696 186.508 278.932M195.328 271.682L196.829 284.54M231.132 263.513C225.912 272.231 220.235 278.877 214.976 283.789M231.132 263.513C231.708 268.452 232.923 276.457 234.648 283.881M273.269 249.235C273.044 252.013 272.666 254.713 272.159 257.332M273.269 249.235C279.37 258.64 287.635 267.246 298.624 273.072M272.159 257.332C270.566 265.559 267.7 272.973 264.292 279.415M272.159 257.332C273.134 262.782 276.999 273.131 285.44 282.935M298.624 273.072C299.467 274.454 301.36 289.477 302.201 296.816C295.268 292.817 289.756 287.947 285.44 282.935M264.292 279.415C257.625 292.016 248.885 300.897 243.544 304.86L240.4 299.783C238.137 296.681 236.189 290.513 234.648 283.881M264.292 279.415C266.203 285.642 272.344 299.411 281.622 304.674C282.707 299.691 284.99 288.368 285.44 282.935M214.976 283.789C207.827 290.466 201.453 293.94 198.057 295.06L196.829 284.54M214.976 283.789L218.188 305.112C222.506 301.212 231.842 291.506 234.648 283.881M186.508 278.932L184.908 291.341C184.82 292.018 185.58 292.476 186.137 292.083L196.829 284.54M215.203 255.604C212.722 260.189 207.638 269.7 205.117 276.128M215.203 255.604C215.202 255.53 215.2 255.456 215.198 255.383M215.203 255.604L215.198 255.383M237.648 205.195C234.891 210.581 237.853 218.053 240.312 222.878C243.689 229.505 228.005 239.666 225.485 244.539" stroke="#78864C" stroke-width="0.5"/>
<path d="M233.845 67.1412C237.471 63.5172 239.773 55.605 240.47 52.1018C240.47 49.7463 240.505 45.0352 240.645 45.0352C240.784 45.0352 245.003 43.344 247.096 42.4984L246.921 48.4779C243.957 63.3361 229.312 71.6711 233.845 67.1412Z" fill="#5C4837" stroke="#524133" stroke-width="0.5"/>
<path d="M234.427 31.2243C226.039 28.444 205.712 28.4069 191.502 50.5015C173.74 78.1197 188.357 110.001 190.207 112.411C190.888 113.298 192.849 114.713 195.203 116.813C192.646 120.351 189.512 128.833 197.423 134.468C207.311 141.512 204.406 138.546 207.02 142.439C207.105 141.428 207.681 141.023 208.154 140.956C209.34 140.26 210.239 139.322 210.907 138.228C213.657 133.729 212.49 126.605 211.299 122.976C218.7 113.338 210.374 107.617 208.709 104.651C207.044 101.685 204.634 89.8311 205.929 90.2019C207.224 90.5726 210.744 85.9046 211.299 80.3439C211.743 75.8954 222.462 69.0989 227.766 66.2568C240.347 54.9871 244.849 45.6204 245.528 42.3457C243.159 36.4143 237.14 32.46 234.427 31.2243Z" fill="#5C4837"/>
<path d="M208.154 140.956C207.681 141.023 207.105 141.428 207.02 142.439C204.406 138.546 207.311 141.512 197.423 134.468C195.748 137.224 194.433 143.978 202.048 149.522C202.286 149.695 202.533 149.868 202.788 150.038C204.617 150.542 207.902 152.01 209.782 154.487C212.496 152.059 213.931 149.569 214.536 147.258C215.41 143.924 214.558 140.963 213.334 139.102C213.012 138.705 212.074 137.974 210.907 138.228C210.239 139.322 209.34 140.26 208.154 140.956Z" fill="#5C4837"/>
<path d="M209.782 154.487C207.902 152.01 204.617 150.542 202.788 150.038C202.533 149.868 202.286 149.695 202.048 149.522C200.815 152.166 200.309 158.453 208.154 162.457C208.288 162.513 208.474 162.573 208.709 162.629C209.773 162.884 211.841 163.064 214.63 162.457C216.689 160.007 217.319 157.327 217.208 154.858C217.064 151.649 215.669 148.794 214.536 147.258C213.931 149.569 212.496 152.059 209.782 154.487Z" fill="#5C4837"/>
<path d="M214.63 162.457C211.841 163.064 209.773 162.884 208.709 162.629C209.202 163.499 210.3 165.497 210.744 166.535C211.053 166.782 212.446 166.943 215.555 165.608C220.439 161.16 218.692 156.588 217.208 154.858C217.319 157.327 216.689 160.007 214.63 162.457Z" fill="#5C4837"/>
<path d="M215.555 165.608C212.446 166.943 211.053 166.782 210.744 166.535C208.771 169.933 206.008 177.99 210.744 183.032C210.744 183.773 211.225 184.441 213.149 181.178C215 177.842 219.44 163.94 215.555 165.608Z" fill="#5C4837"/>
<path d="M206.304 134.468C204.433 126.037 199.24 120.417 195.203 116.813M211.299 122.976C218.7 113.338 210.374 107.617 208.709 104.651C207.044 101.685 204.634 89.8311 205.929 90.2019C207.224 90.5726 210.744 85.9046 211.299 80.3439C211.743 75.8954 222.462 69.0989 227.766 66.2568C240.347 54.9871 244.849 45.6204 245.528 42.3457C243.159 36.4143 237.14 32.46 234.427 31.2243C226.039 28.444 205.712 28.4069 191.502 50.5015C173.74 78.1197 188.357 110.001 190.207 112.411C190.888 113.298 192.849 114.713 195.203 116.813M211.299 122.976C209.91 125.24 209.782 126.98 206.726 129.01M211.299 122.976C212.49 126.605 213.657 133.729 210.907 138.228M208.154 146.331C207.217 144.52 206.951 143.273 207.02 142.439M195.203 116.813C192.646 120.351 189.512 128.833 197.423 134.468M197.423 134.468C207.311 141.512 204.406 138.546 207.02 142.439M197.423 134.468C195.748 137.224 194.433 143.978 202.048 149.522M207.02 142.439C207.105 141.428 207.681 141.023 208.154 140.956C209.34 140.26 210.239 139.322 210.907 138.228M211.114 157.453C210.923 156.34 210.438 155.352 209.782 154.487M209.782 154.487C207.902 152.01 204.617 150.542 202.788 150.038C202.533 149.868 202.286 149.695 202.048 149.522M209.782 154.487C212.496 152.059 213.931 149.569 214.536 147.258M202.048 149.522C200.815 152.166 200.309 158.453 208.154 162.457C208.288 162.513 208.474 162.573 208.709 162.629M208.709 162.629C209.773 162.884 211.841 163.064 214.63 162.457C216.689 160.007 217.319 157.327 217.208 154.858M208.709 162.629C209.202 163.499 210.3 165.497 210.744 166.535M210.744 166.535C211.053 166.782 212.446 166.943 215.555 165.608M210.744 166.535C208.771 169.933 206.008 177.99 210.744 183.032C210.744 183.773 211.225 184.441 213.149 181.178C215 177.842 219.44 163.94 215.555 165.608M215.555 165.608C220.439 161.16 218.692 156.588 217.208 154.858M210.907 138.228C212.074 137.974 213.012 138.705 213.334 139.102C214.558 140.963 215.41 143.924 214.536 147.258M214.536 147.258C215.669 148.794 217.064 151.649 217.208 154.858" stroke="#524133" stroke-width="0.5"/>
<path d="M234.201 30.8059C242.029 26.7289 257.329 25.1901 274.865 44.6687C296.786 69.0168 285.05 105.499 283.61 108.167C283.079 109.149 281.371 110.855 279.386 113.299C282.47 116.372 286.915 124.222 280.012 131.032C271.383 139.545 273.775 136.162 271.818 140.411C271.574 139.43 270.941 139.124 270.464 139.133C269.183 138.637 268.147 137.857 267.314 136.888C263.885 132.898 263.157 132.162 263.752 128.399C262.852 128.399 258.231 123.963 260.634 121.937C263.228 119.75 274.865 114.907 278.196 95.8685C278.428 94.543 277.962 77.4093 276.528 72.0243C275.381 67.7163 265.207 60.2967 259.523 58.3465C245.319 49.2633 246.112 46.1201 244.921 43.0051C246.31 36.7881 231.722 32.4558 234.201 30.8059Z" fill="#5C4837"/>
<path d="M270.464 139.133C270.941 139.124 271.574 139.43 271.818 140.411C273.775 136.162 271.383 139.545 280.012 131.032C282.103 133.478 284.477 139.915 277.851 146.59C277.644 146.798 277.429 147.007 277.204 147.216C275.481 148.004 272.475 149.974 271.017 152.712C267.953 150.756 266.141 148.534 265.175 146.356C263.782 143.214 264.15 140.163 265.06 138.136C265.315 137.693 266.123 136.824 267.314 136.888C268.147 137.857 269.183 138.637 270.464 139.133Z" fill="#5C4837"/>
<path d="M271.017 152.712C272.475 149.974 275.481 148.004 277.204 147.216C277.429 147.007 277.644 146.798 277.851 146.59C279.489 148.995 280.991 155.103 273.893 160.298C273.77 160.374 273.596 160.463 273.373 160.556C272.365 160.977 270.354 161.485 267.507 161.332C265.085 159.249 264.037 156.712 263.752 154.264C263.383 151.082 264.303 148.049 265.175 146.356C266.141 148.534 267.953 150.756 271.017 152.712Z" fill="#5C4837"/>
<path d="M267.507 161.332C270.354 161.485 272.365 160.977 273.373 160.556C273.025 161.49 272.261 163.633 271.989 164.726C271.724 165.018 270.376 165.399 267.097 164.582C261.571 160.983 262.565 156.204 263.752 154.264C264.037 156.712 265.085 159.249 267.507 161.332Z" fill="#5C4837"/>
<path d="M267.097 164.582C270.376 165.399 271.724 165.018 271.989 164.726C274.477 167.755 278.487 175.245 274.62 180.964C274.738 181.694 274.37 182.428 271.952 179.524C269.596 176.535 263 163.561 267.097 164.582Z" fill="#5C4837"/>
<path d="M271.254 132.451C271.754 123.853 275.979 117.491 279.386 113.299M263.752 128.399C262.852 128.399 258.231 123.963 260.634 121.937C263.228 119.75 274.865 114.907 278.196 95.8685C278.428 94.543 277.962 77.4093 276.528 72.0243C275.381 67.7163 265.207 60.2967 259.523 58.3465C245.319 49.2633 246.112 46.1201 244.921 43.0051C246.31 36.7881 231.722 32.4558 234.201 30.8059C242.029 26.7289 257.329 25.1901 274.865 44.6687C296.786 69.0168 285.05 105.499 283.61 108.167C283.079 109.149 281.371 110.855 279.386 113.299M263.752 128.399C264.395 129.668 267.176 125.772 270.19 125.883M263.752 128.399C263.157 132.162 263.885 132.898 267.314 136.888M271.321 144.424C271.957 142.492 272.02 141.221 271.818 140.411M279.386 113.299C282.47 116.372 286.915 124.222 280.012 131.032M280.012 131.032C271.383 139.545 273.775 136.162 271.818 140.411M280.012 131.032C282.103 133.478 284.477 139.915 277.851 146.59M271.818 140.411C271.574 139.43 270.941 139.124 270.464 139.133C269.183 138.637 268.147 137.857 267.314 136.888M270.176 155.844C270.187 154.718 270.508 153.668 271.017 152.712M271.017 152.712C272.475 149.974 275.481 148.004 277.204 147.216C277.429 147.007 277.644 146.798 277.851 146.59M271.017 152.712C267.953 150.756 266.141 148.534 265.175 146.356M277.851 146.59C279.489 148.995 280.991 155.103 273.893 160.298C273.77 160.374 273.596 160.463 273.373 160.556M273.373 160.556C272.365 160.977 270.354 161.485 267.507 161.332C265.085 159.249 264.037 156.712 263.752 154.264M273.373 160.556C273.025 161.49 272.261 163.633 271.989 164.726M271.989 164.726C271.724 165.018 270.376 165.399 267.097 164.582M271.989 164.726C274.477 167.755 278.487 175.245 274.62 180.964C274.738 181.694 274.37 182.428 271.952 179.524C269.596 176.535 263 163.561 267.097 164.582M267.097 164.582C261.571 160.983 262.565 156.204 263.752 154.264M267.314 136.888C266.123 136.824 265.315 137.693 265.06 138.136C264.15 140.163 263.782 143.214 265.175 146.356M265.175 146.356C264.303 148.049 263.383 151.082 263.752 154.264" stroke="#524133" stroke-width="0.5"/>
<path d="M145.866 221.95C143.846 219.191 154.839 210.173 161.489 210.565C166.517 214.516 168.809 220.682 169.331 224.68C168.547 227.816 168.155 228.208 166.979 229.776C165.832 229.813 163.603 227.787 161.882 226.64C158.507 224.39 154.171 221.536 153.648 220.367C150.061 222.705 146.717 223.111 145.866 221.95Z" fill="#F6C09C" stroke="#B7947D" stroke-width="0.5"/>
</g>
<defs>
<filter id="filter0_dddd_1090_330" x="0" y="0" width="361.354" height="384.472" filterUnits="userSpaceOnUse" color-interpolation-filters="sRGB">
<feFlood flood-opacity="0" result="BackgroundImageFix"/>
<feColorMatrix in="SourceAlpha" type="matrix" values="0 0 0 0 0 0 0 0 0 0 0 0 0 0 0 0 0 0 127 0" result="hardAlpha"/>
<feOffset dx="-4"/>
<feGaussianBlur stdDeviation="5"/>
<feColorMatrix type="matrix" values="0 0 0 0 0 0 0 0 0 0 0 0 0 0 0 0 0 0 0.05 0"/>
<feBlend mode="normal" in2="BackgroundImageFix" result="effect1_dropShadow_1090_330"/>
<feColorMatrix in="SourceAlpha" type="matrix" values="0 0 0 0 0 0 0 0 0 0 0 0 0 0 0 0 0 0 127 0" result="hardAlpha"/>
<feOffset dx="-17"/>
<feGaussianBlur stdDeviation="8.5"/>
<feColorMatrix type="matrix" values="0 0 0 0 0 0 0 0 0 0 0 0 0 0 0 0 0 0 0.04 0"/>
<feBlend mode="normal" in2="effect1_dropShadow_1090_330" result="effect2_dropShadow_1090_330"/>
<feColorMatrix in="SourceAlpha" type="matrix" values="0 0 0 0 0 0 0 0 0 0 0 0 0 0 0 0 0 0 127 0" result="hardAlpha"/>
<feOffset dx="-39"/>
<feGaussianBlur stdDeviation="11.5"/>
<feColorMatrix type="matrix" values="0 0 0 0 0 0 0 0 0 0 0 0 0 0 0 0 0 0 0.03 0"/>
<feBlend mode="normal" in2="effect2_dropShadow_1090_330" result="effect3_dropShadow_1090_330"/>
<feColorMatrix in="SourceAlpha" type="matrix" values="0 0 0 0 0 0 0 0 0 0 0 0 0 0 0 0 0 0 127 0" result="hardAlpha"/>
<feOffset dx="-69"/>
<feGaussianBlur stdDeviation="14"/>
<feColorMatrix type="matrix" values="0 0 0 0 0 0 0 0 0 0 0 0 0 0 0 0 0 0 0.01 0"/>
<feBlend mode="normal" in2="effect3_dropShadow_1090_330" result="effect4_dropShadow_1090_330"/>
<feBlend mode="normal" in="SourceGraphic" in2="effect4_dropShadow_1090_330" result="shape"/>
</filter>
<radialGradient id="paint0_radial_1090_330" cx="0" cy="0" r="1" gradientUnits="userSpaceOnUse" gradientTransform="translate(107.451 187.56) rotate(28.1426) scale(12.1539 6.07697)">
<stop stop-color="#66D742"/>
<stop offset="0.514423" stop-color="#66BA4C"/>
<stop offset="1" stop-color="#668E5A"/>
</radialGradient>
<linearGradient id="paint1_linear_1090_330" x1="236.227" y1="137.779" x2="236.227" y2="305.112" gradientUnits="userSpaceOnUse">
<stop offset="0.514423" stop-color="#D9D7A7"/>
<stop offset="1" stop-color="#C8D29E"/>
</linearGradient>
<linearGradient id="paint2_linear_1090_330" x1="236.227" y1="137.779" x2="236.227" y2="305.112" gradientUnits="userSpaceOnUse">
<stop offset="0.514423" stop-color="#D9D7A7"/>
<stop offset="1" stop-color="#C8D29E"/>
</linearGradient>
<linearGradient id="paint3_linear_1090_330" x1="236.227" y1="137.779" x2="236.227" y2="305.112" gradientUnits="userSpaceOnUse">
<stop offset="0.514423" stop-color="#D9D7A7"/>
<stop offset="1" stop-color="#C8D29E"/>
</linearGradient>
<linearGradient id="paint4_linear_1090_330" x1="236.227" y1="137.779" x2="236.227" y2="305.112" gradientUnits="userSpaceOnUse">
<stop offset="0.514423" stop-color="#D9D7A7"/>
<stop offset="1" stop-color="#C8D29E"/>
</linearGradient>
<linearGradient id="paint5_linear_1090_330" x1="236.227" y1="137.779" x2="236.227" y2="305.112" gradientUnits="userSpaceOnUse">
<stop offset="0.25" stop-color="#8EA45B"/>
<stop offset="1" stop-color="#859A55"/>
</linearGradient>
<linearGradient id="paint6_linear_1090_330" x1="236.227" y1="137.779" x2="236.227" y2="305.112" gradientUnits="userSpaceOnUse">
<stop offset="0.25" stop-color="#8EA45B"/>
<stop offset="1" stop-color="#859A55"/>
</linearGradient>
</defs>
</svg>
