<svg width="70" height="70" viewBox="0 0 70 70" fill="none" xmlns="http://www.w3.org/2000/svg">
<rect x="0.5" y="0.5" width="69" height="69" rx="10.5526" fill="#F4F7F2"/>
<rect x="0.5" y="0.5" width="69" height="69" rx="10.5526" stroke="#CACACA"/>
<g clip-path="url(#clip0_1090_435)">
<path d="M25.0717 12.1678C28.3875 11.1788 31.9094 11.1044 35.264 11.953C38.6186 12.8016 41.6815 14.5414 44.1283 16.9882C46.5751 19.4349 48.3149 22.4978 49.1635 25.8524C50.012 29.207 49.9377 32.7289 48.9486 36.0448C47.9595 39.3608 46.092 42.3477 43.5443 44.6893C41.1558 46.8846 38.2526 48.4365 35.1078 49.204L34.476 49.3466C33.1986 49.6038 31.899 49.7335 30.5961 49.7343C27.2258 49.7384 23.9136 48.8546 20.9935 47.1718L20.8959 47.1151L20.7894 47.1512L14.9261 49.1053C14.5203 49.2407 14.0847 49.2602 13.6683 49.162C13.252 49.0638 12.8713 48.852 12.5687 48.5497C12.2661 48.2473 12.0529 47.8664 11.9545 47.4501C11.856 47.0338 11.8761 46.5981 12.0111 46.1923L13.9652 40.3251L14.0004 40.2186L13.9447 40.121C11.6007 36.0428 10.8274 31.2489 11.7699 26.6405C12.4764 23.2531 14.0856 20.1198 16.4271 17.5721C18.7687 15.0244 21.7557 13.157 25.0717 12.1678ZM35.5844 14.994C33.2347 14.2334 30.7452 14.0154 28.3031 14.3544L27.8158 14.4296C25.1908 14.8725 22.714 15.9511 20.601 17.5702C18.488 19.1893 16.8023 21.3003 15.6918 23.7196C14.5813 26.1389 14.079 28.7933 14.2289 31.451C14.3788 34.1088 15.1768 36.6895 16.5521 38.9686V38.9696C16.7236 39.2519 16.8321 39.5682 16.8695 39.8964C16.8975 40.1426 16.8851 40.3915 16.8334 40.6327L16.7689 40.871L15.1879 45.6122L15.0297 46.0868L15.5043 45.9286L20.2455 44.3495H20.2465C20.4769 44.272 20.7182 44.232 20.9613 44.2313C21.3793 44.232 21.7894 44.3466 22.1469 44.5634L22.1478 44.5643C24.4075 45.9186 26.9613 46.7066 29.5912 46.8612C32.2211 47.0158 34.8495 46.5322 37.2523 45.452C39.655 44.3718 41.7611 42.7267 43.391 40.6571C45.0209 38.5875 46.1267 36.1543 46.6136 33.5653C47.1005 30.9764 46.9545 28.3082 46.1879 25.788C45.4212 23.2676 44.0564 20.97 42.2103 19.0907C40.3642 17.2113 38.0907 15.8055 35.5844 14.994Z" fill="#6A994E" stroke="#6A994E" stroke-width="0.5"/>
<path d="M48.28 27.9872C48.4194 27.9871 48.5582 28.0075 48.6912 28.0477L48.823 28.0946C50.901 28.9493 52.7739 30.237 54.3162 31.871C55.8583 33.5049 57.035 35.4484 57.7683 37.5721C58.5016 39.696 58.7746 41.9519 58.5691 44.1893C58.3744 46.3093 57.7528 48.3662 56.7458 50.2391L56.656 50.2577L56.4109 50.3065L56.4128 50.3173L56.658 50.2684L56.739 50.2518C56.6854 50.3513 56.6317 50.4512 56.5759 50.5497L56.5212 50.6464L56.5564 50.7509L56.6658 51.0839L56.5779 51.035L56.3601 50.913L56.3484 50.9335L56.6765 51.1151L58.0867 55.3885L58.0876 55.3905C58.2167 55.768 58.2364 56.1749 58.1453 56.5634C58.0541 56.9517 57.8554 57.307 57.572 57.5878C57.2886 57.8683 56.9318 58.0629 56.5427 58.1503C56.1534 58.2377 55.7471 58.2146 55.3708 58.0819L55.2937 58.2997L55.2966 58.2909L55.3708 58.0809L55.366 58.08L51.1472 56.6854L51.0681 56.5585L50.9353 56.3466L50.9177 56.3573L51.0505 56.5692L51.1169 56.6747L50.7488 56.5536L50.6443 56.5194L50.5476 56.5741C50.445 56.6322 50.3408 56.6873 50.2371 56.743L50.2771 56.663L50.3894 56.4393L50.3806 56.4344L50.2683 56.6581L50.2214 56.7509C47.9207 57.9829 45.3498 58.6291 42.7361 58.6249H42.7351C41.6635 58.6237 40.5938 58.5178 39.5427 58.3094C37.0098 57.772 34.6448 56.6277 32.6511 54.9755C30.6566 53.3224 29.0928 51.2096 28.0945 48.8192L28.0935 48.8163L28.0437 48.6844C28.0009 48.5508 27.9781 48.4112 27.9763 48.2704C27.974 48.0825 28.0093 47.8958 28.0798 47.7216C28.1504 47.5474 28.2551 47.3891 28.3875 47.2557C28.5199 47.1224 28.6776 47.017 28.8513 46.9452C29.025 46.8734 29.2112 46.8368 29.3992 46.8378C29.5871 46.8387 29.7731 46.8765 29.946 46.9501C30.119 47.0236 30.2759 47.1308 30.407 47.2655C30.5381 47.4002 30.6409 47.5603 30.7097 47.7352L30.7107 47.7382C31.4222 49.4735 32.5011 51.0343 33.8728 52.3134C35.2446 53.5924 36.8772 54.5597 38.658 55.1483C40.4389 55.7369 42.3263 55.9332 44.1902 55.7235C46.0541 55.5138 47.8502 54.903 49.4558 53.9335H49.4568C49.7215 53.772 50.0187 53.67 50.3269 53.6356C50.635 53.6013 50.9473 53.6351 51.241 53.7343L51.2429 53.7352L54.4939 54.8104L54.9656 54.9657L54.8103 54.494L53.7332 51.2343L53.7322 51.2323C53.6328 50.9373 53.6004 50.6235 53.6365 50.3143C53.6726 50.0051 53.7765 49.7074 53.9412 49.4432L53.9431 49.4403C54.9088 47.8347 55.5163 46.0388 55.7234 44.1766C55.9304 42.3146 55.7325 40.4297 55.1433 38.6512C54.554 36.8727 53.5874 35.2421 52.3093 33.8719C51.0313 32.5018 49.4714 31.4242 47.738 30.7128H47.7371C47.5659 30.6416 47.4102 30.5372 47.2791 30.4061C47.1477 30.2748 47.0436 30.1187 46.9724 29.9471C46.9012 29.7753 46.8641 29.5902 46.864 29.4042C46.864 29.2182 46.9003 29.034 46.9714 28.8622C47.0426 28.6903 47.1475 28.5338 47.2791 28.4022C47.4104 28.2708 47.5664 28.1668 47.738 28.0956C47.9098 28.0244 48.0941 27.9873 48.28 27.9872ZM55.1609 56.3544L54.9216 56.4257L54.9285 56.4481L55.1677 56.3759L55.407 56.3046L55.4011 56.2821L55.1609 56.3544ZM56.3337 55.1542L56.2625 55.3944L56.2839 55.4003L56.4285 54.9218L56.406 54.9149L56.3337 55.1542Z" fill="#6A994E" stroke="#6A994E" stroke-width="0.5"/>
</g>
<defs>
<clipPath id="clip0_1090_435">
<rect width="47.8947" height="47.8947" fill="white" transform="translate(11.0526 11.0526)"/>
</clipPath>
</defs>
</svg>
