<svg width="117" height="112" viewBox="0 0 117 112" fill="none" xmlns="http://www.w3.org/2000/svg">
<path d="M43.68 69.88L45.24 66.76C47.3381 68.7434 49.6935 70.8277 52.26 72.22L47.5791 80.8002H39.78L28.08 58.9597V87.04H18.72V43.36H30.42L43.68 69.88Z" fill="#6A994E"/>
<path d="M58.5 79.24C59.9862 81.8657 61.9169 83.9808 64.2928 85.5849C65.1713 86.1575 66.1005 86.6423 67.08 87.04H58.5V79.24Z" fill="#6A994E"/>
<path fill-rule="evenodd" clip-rule="evenodd" d="M64.35 20.3502C85.7783 47.5328 63.2832 69.6503 56.1598 69.88C55.9924 69.49 55.764 69.1378 55.6024 68.32C55.3792 67.1911 55.6024 65.2 55.6024 65.2C55.6024 65.2 70.3021 62.5535 66.2327 37.1738C66.1736 36.8098 65.6522 36.8481 65.6504 37.2176C65.6058 46.7317 60.5272 55.0517 55.427 60.3326C55.0024 60.5695 57.7144 54.6996 56.6814 47.3285C56.6286 46.9506 56.0846 46.9968 56.0979 47.3782C56.3795 55.2832 53.0063 59.5878 53.0063 65.0267C53.0063 67.5741 53.0398 69.88 53.0398 69.88C53.0398 69.88 51.021 68.3669 46.0198 64.429C34.1907 35.9402 59.1179 33.9618 62.4 20.7399C62.5854 19.9962 63.7875 19.6366 64.35 20.3502Z" fill="#6A994E"/>
<path d="M66.671 68.1011C67.0279 69.3882 67.0341 69.3985 67.8251 71.2634C68.7262 73.3463 70.0369 74.9709 71.7571 76.1373C73.4774 77.2621 75.5663 77.8245 78.0239 77.8245C80.6043 77.8245 82.6728 77.2829 84.2292 76.1998C85.8266 75.0751 86.8711 73.4712 87.3626 71.3884H97.5C96.7218 76.0124 94.6124 79.6574 91.1718 82.3235C87.7722 84.9479 83.41 86.2601 78.0853 86.2601C73.7437 86.2601 69.9959 85.3228 66.842 83.4482C63.7291 81.532 61.3125 78.8867 59.5923 75.5125C58.7565 73.8125 58.7855 73.8643 58.5 73.0024C61.366 72.376 63.8657 70.8785 66.671 68.1011Z" fill="#6A994E"/>
<path d="M78.78 40.63C84.1047 40.63 87.7722 42.374 91.1718 45.0817C94.6124 47.7894 96.6941 51.7045 97.4723 56.6201H87.3349C86.97 55.0601 85.8881 52.6009 84.2907 51.3928C82.6932 50.1431 81.1296 49.2437 78.5492 49.2437C76.9872 49.4508 77.7692 49.2437 76.44 49.6001C76.83 45.7001 76.83 43.36 76.44 41.02C76.6481 40.955 77.8473 40.63 78.78 40.63Z" fill="#6A994E"/>
</svg>
