<svg width="70" height="70" viewBox="0 0 70 70" fill="none" xmlns="http://www.w3.org/2000/svg">
<rect x="0.5" y="0.5" width="69" height="69" rx="10.5526" fill="#F4F7F2"/>
<rect x="0.5" y="0.5" width="69" height="69" rx="10.5526" stroke="#CACACA"/>
<g clip-path="url(#clip0_1090_427)">
<path d="M30.1465 14.9871C39.5265 14.9871 47.1484 22.4481 47.1484 31.6062C47.1508 34.8621 46.1684 38.0469 44.3232 40.7585L44.2051 40.9314L44.3545 41.0779L53.1133 49.6414L53.1172 49.6443C53.4226 49.9327 53.6657 50.2782 53.833 50.6589C54.0001 51.0394 54.0881 51.4484 54.0918 51.8621C54.0955 52.276 54.0149 52.6876 53.8545 53.071C53.694 53.4544 53.4564 53.8029 53.1562 54.0964C52.8561 54.3899 52.4991 54.6225 52.1055 54.78C51.7117 54.9375 51.289 55.017 50.8633 55.0134C50.4377 55.0098 50.0167 54.9227 49.626 54.7585C49.2353 54.5944 48.8827 54.3558 48.5879 54.0574L48.584 54.0544L39.8252 45.49L39.6826 45.3503L39.5146 45.4597C36.74 47.2647 33.4801 48.2268 30.1465 48.2244C20.7666 48.2243 13.1448 40.764 13.1445 31.6062C13.1445 22.4482 20.7665 14.9871 30.1465 14.9871ZM30.1465 19.5476C23.3545 19.5477 17.8203 24.9516 17.8203 31.6062C17.8206 38.2606 23.3546 43.6638 30.1465 43.6638C36.9384 43.6638 42.4724 38.2606 42.4727 31.6062C42.4727 24.9515 36.9385 19.5476 30.1465 19.5476Z" fill="#6A994E" stroke="#F4F7F2" stroke-width="0.5"/>
</g>
<defs>
<clipPath id="clip0_1090_427">
<rect width="43.2895" height="42.3684" fill="white" transform="translate(13.3553 13.816)"/>
</clipPath>
</defs>
</svg>
