<svg width="214" height="324" viewBox="0 0 214 324" fill="none" xmlns="http://www.w3.org/2000/svg">
<path d="M177.464 194.723C175.904 195.545 175.852 197.761 177.372 198.655C177.998 199.023 178.766 199.064 179.442 198.781C182.483 197.505 185.233 196.646 186.688 196.225C187.224 196.07 187.751 195.895 188.265 195.691L188.774 195.476L206.003 187.434C207.333 186.814 207.92 185.242 207.322 183.902C206.711 182.533 205.097 181.928 203.736 182.558L179.359 193.848L179.356 193.849L177.781 194.554L177.464 194.723Z" fill="#926841" stroke="#4B4B4B" stroke-width="0.5"/>
<path d="M51.9931 187.35C51.6885 156.891 78.2633 144.962 91.5888 142.805C97.3758 138.54 97.5535 145.343 96.919 149.277C84.1265 190.7 61.6382 191.918 51.9931 187.35Z" fill="#F8F8F8"/>
<path d="M91.5888 152.704C89.5641 153.972 87.0673 155.615 84.3557 157.502M58.4662 182.02C60.442 177.08 67.1795 170.657 74.4568 164.856M74.4568 164.856C73.3146 167.785 71.0302 174.481 71.0302 177.832M74.4568 164.856C77.7778 162.208 81.2112 159.69 84.3557 157.502M84.3557 157.502C79.9139 158.197 70.3449 160.114 67.6037 162.222M91.5888 142.805C78.2633 144.962 51.6885 156.891 51.9931 187.35C61.6382 191.918 84.1265 190.7 96.919 149.277C97.5535 145.343 97.3758 138.54 91.5888 142.805Z" stroke="#7B7B7B" stroke-width="0.5" stroke-linecap="round"/>
<path d="M207.827 177.735C203.814 145.905 163.035 138.943 143.147 139.441C134.023 136.187 134.758 143.319 136.266 147.291C161.121 187.856 194.33 184.489 207.827 177.735Z" fill="#F8F8F8"/>
<path d="M144.597 149.766C147.756 150.672 151.664 151.869 155.923 153.279M197.539 173.511C193.914 168.767 183.077 163.457 171.539 158.907M171.539 158.907C173.646 161.727 177.981 168.24 178.472 171.734M171.539 158.907C166.274 156.831 160.862 154.913 155.923 153.279M155.923 153.279C162.549 153.088 176.884 153.114 181.219 154.747M143.147 139.441C163.035 138.943 203.814 145.905 207.827 177.735C194.33 184.489 161.121 187.856 136.266 147.291C134.758 143.319 134.023 136.187 143.147 139.441Z" stroke="#7B7B7B" stroke-width="0.5" stroke-linecap="round"/>
<path d="M200.477 100.163C182.812 132.753 156.821 140.393 146.033 140.139C98.8228 149.277 115.702 122.626 130.043 108.158C179.995 57.2929 205.173 47.8762 211.519 49.526C217.306 60.1864 206.569 87.7257 200.477 100.163Z" fill="#F8F8F8"/>
<path d="M150.983 116.534C151.666 115.929 152.379 115.293 153.12 114.63M203.524 61.7093C201.356 67.6404 188.306 81.3915 174.809 94.4519M163.963 104.732L172.304 80.7457M163.963 104.732C167.474 101.468 171.158 97.9852 174.809 94.4519M163.963 104.732C160.034 108.384 156.323 111.763 153.12 114.63M174.809 94.4519C180.573 94.6292 193.776 93.4308 200.477 87.2181M153.12 114.63C161.672 113.234 181.137 109.605 190.579 106.254M146.033 140.139C156.821 140.393 182.812 132.753 200.477 100.163C206.569 87.7257 217.306 60.1864 211.519 49.526C205.173 47.8762 179.995 57.2929 130.043 108.158C115.702 122.626 98.8228 149.277 146.033 140.139Z" stroke="#7B7B7B" stroke-width="0.5" stroke-linecap="round"/>
<path d="M47.9515 100.163C65.6172 132.753 91.6082 140.393 102.396 140.139C149.606 149.277 132.727 122.626 118.386 108.158C68.4341 57.2929 43.2557 47.8762 36.9104 49.526C31.1233 60.1864 41.8598 87.7257 47.9515 100.163Z" fill="#F8F8F8"/>
<path d="M97.4455 116.534C96.7629 115.929 96.0496 115.293 95.3091 114.63M44.9051 61.7093C47.0727 67.6404 60.1225 81.3915 73.6196 94.4519M84.4656 104.732L76.1248 80.7457M84.4656 104.732C80.9553 101.468 77.2711 97.9852 73.6196 94.4519M84.4656 104.732C88.3945 108.384 92.1055 111.763 95.3091 114.63M73.6196 94.4519C67.8558 94.6292 54.6527 93.4308 47.9515 87.2181M95.3091 114.63C86.7569 113.234 67.2919 109.605 57.8499 106.254M102.396 140.139C91.6082 140.393 65.6172 132.753 47.9515 100.163C41.8598 87.7257 31.1233 60.1864 36.9104 49.526C43.2557 47.8762 68.4341 57.2929 118.386 108.158C132.727 122.626 149.606 149.277 102.396 140.139Z" stroke="#7B7B7B" stroke-width="0.5" stroke-linecap="round"/>
<path d="M131.372 299.713C131.373 303.015 148.464 315.683 154.032 316.054C157.03 316.594 163.501 316.273 166.288 311.597C167.163 310.13 166.843 308.185 166.458 306.85C166.285 307.132 166.584 307.013 164.792 307.886C163.35 308.588 163.303 308.738 160.335 309.743C159.935 309.878 156.374 311.419 155.917 311.466C148.782 312.191 131.208 296.372 131.208 296.372C131.208 296.372 131.372 299.647 131.372 299.713Z" fill="#808A49"/>
<path d="M160.49 300.397C157.59 298.2 154.195 295.256 152.918 292.285C152.573 291.482 151.985 288.248 152.097 286.235C151.539 286.406 150.894 286.585 150.182 286.761C144.884 288.067 135.859 289.206 130.854 285.934C130.524 291.316 131.208 296.372 131.208 296.372C131.208 296.372 148.782 312.191 155.917 311.466C156.374 311.419 159.935 309.878 160.335 309.743C163.303 308.738 163.35 308.588 164.792 307.886C166.584 307.013 166.285 307.132 166.458 306.85C165.616 303.928 162.52 301.507 160.49 300.397Z" fill="#F6C09C"/>
<path d="M155.562 258.185C158.155 243.795 154.352 236.408 152.126 234.514L130.558 247.041C130.872 253.118 131.18 261.927 131.208 270.527L136.154 275.09C138.627 277.371 139.829 276.572 140.121 275.887C139.287 273.37 138.117 268.413 140.114 268.729C142.61 269.125 144.196 271.541 144.296 274.017C144.396 276.493 143.228 278.276 144.476 278.474C145.474 278.632 150.078 282.052 152.255 283.742C152.651 278.101 153.524 269.489 155.562 258.185Z" fill="#F6C09C"/>
<path d="M130.854 285.934C135.859 289.206 144.884 288.067 150.182 286.761C149.145 284.956 145.824 281.148 140.831 280.357C140.165 282.286 137.727 285.79 133.305 284.381C132.935 283.404 133.32 281.057 137.82 279.487L131.203 274.204C131.175 278.385 131.069 282.412 130.854 285.934Z" fill="#F6C09C"/>
<path d="M150.182 286.761C150.894 286.585 151.539 286.406 152.097 286.235C152.139 285.482 152.191 284.651 152.255 283.742C150.078 282.052 145.474 278.632 144.476 278.474C143.228 278.276 144.396 276.493 144.296 274.017C144.196 271.541 142.61 269.125 140.114 268.729C138.117 268.413 139.287 273.37 140.121 275.887C139.829 276.572 138.627 277.371 136.154 275.09L131.208 270.527C131.212 271.76 131.211 272.988 131.203 274.204L137.82 279.487C133.32 281.057 132.935 283.404 133.305 284.381C137.727 285.79 140.165 282.286 140.831 280.357C145.824 281.148 149.145 284.956 150.182 286.761Z" fill="#808A49"/>
<path d="M154.567 301.133C154.527 300.142 151.733 298.519 154.98 292.931C156.327 293.538 159.022 295.992 159.024 300.953C159.024 302.371 158.465 303.501 157.585 304.393C155.388 306.621 151.197 307.369 148.752 307.437L146.585 306.167L145.555 305.217C146.519 304.516 148.942 303.096 150.923 303.016C151.815 302.98 153.621 302.625 154.363 301.523C154.445 301.402 154.514 301.272 154.567 301.133Z" fill="#808A49"/>
<path d="M126.168 267.308C124.885 268.285 125.713 269.696 126.288 270.28L131.203 274.204C131.211 272.988 131.212 271.76 131.208 270.527L129.457 268.912C128.894 267.97 127.45 266.332 126.168 267.308Z" fill="#808A49"/>
<path d="M131.208 296.372C131.208 296.372 131.372 299.647 131.372 299.713C131.373 303.015 148.464 315.683 154.032 316.054C157.03 316.594 163.501 316.273 166.288 311.597C167.163 310.13 166.843 308.185 166.458 306.85M131.208 296.372C131.208 296.372 130.524 291.316 130.854 285.934M131.208 296.372C131.208 296.372 148.782 312.191 155.917 311.466C156.374 311.419 159.935 309.878 160.335 309.743M160.335 309.743C163.303 308.738 163.35 308.588 164.792 307.886M160.335 309.743L159.024 308.965L158.107 308.257M166.458 306.85C165.616 303.928 162.52 301.507 160.49 300.397C157.59 298.2 154.195 295.256 152.918 292.285C152.573 291.482 151.985 288.248 152.097 286.235M166.458 306.85C166.285 307.132 166.584 307.013 164.792 307.886M161.078 304.915L163.079 306.167L164.792 307.886M159.592 306.771L160.707 307.514L162.564 308.965M152.097 286.235C151.539 286.406 150.894 286.585 150.182 286.761M152.097 286.235C152.139 285.482 152.191 284.651 152.255 283.742M130.854 285.934C135.859 289.206 144.884 288.067 150.182 286.761M130.854 285.934C131.069 282.412 131.175 278.385 131.203 274.204M150.182 286.761C149.145 284.956 145.824 281.148 140.831 280.357M140.831 280.357C140.165 282.286 137.727 285.79 133.305 284.381C132.935 283.404 133.32 281.057 137.82 279.487M140.831 280.357C140.831 280.357 140.201 279.359 139.543 279.169C138.886 278.979 137.82 279.487 137.82 279.487M137.82 279.487L131.203 274.204M129.457 268.912C128.894 267.97 127.45 266.332 126.168 267.308C124.885 268.285 125.713 269.696 126.288 270.28L131.203 274.204M129.457 268.912C130.659 270.02 133.681 272.808 136.154 275.09M129.457 268.912L131.208 270.527M136.154 275.09C138.627 277.371 139.829 276.572 140.121 275.887M136.154 275.09L131.208 270.527M140.121 275.887C139.287 273.37 138.117 268.413 140.114 268.729C142.61 269.125 144.196 271.541 144.296 274.017C144.396 276.493 143.228 278.276 144.476 278.474M140.121 275.887C140.121 275.887 140.989 277.552 141.98 278.079C142.851 278.542 144.476 278.474 144.476 278.474M144.476 278.474C145.474 278.632 150.078 282.052 152.255 283.742M152.255 283.742C152.651 278.101 153.524 269.489 155.562 258.185C158.155 243.795 154.352 236.408 152.126 234.514L130.558 247.041C130.872 253.118 131.18 261.927 131.208 270.527M131.208 270.527C131.212 271.76 131.211 272.988 131.203 274.204M138.067 304.031C140.905 302.676 147.784 300.216 152.586 301.212C153.09 301.44 153.968 301.726 154.363 301.523M154.363 301.523C154.496 301.455 154.575 301.332 154.567 301.133M154.363 301.523C153.621 302.625 151.815 302.98 150.923 303.016C148.942 303.096 146.519 304.516 145.555 305.217L146.585 306.167L148.752 307.437C151.197 307.369 155.388 306.621 157.585 304.393M154.363 301.523C154.445 301.402 154.514 301.272 154.567 301.133M154.567 301.133C154.527 300.142 151.733 298.519 154.98 292.931C156.327 293.538 159.022 295.992 159.024 300.953C159.024 302.371 158.465 303.501 157.585 304.393M157.585 304.393L154.349 301.885" stroke="#606B3B" stroke-width="0.5"/>
<path d="M114.037 299.713C114.037 303.015 96.9454 315.683 91.377 316.054C88.379 316.594 81.9084 316.273 79.1209 311.597C78.2464 310.13 78.5669 308.185 78.9517 306.85C79.1241 307.132 78.8252 307.013 80.6174 307.886C82.0599 308.588 82.1064 308.738 85.0741 309.743C85.4747 309.878 89.0353 311.419 89.4923 311.466C96.6274 312.191 114.201 296.372 114.201 296.372C114.201 296.372 114.037 299.647 114.037 299.713Z" fill="#808A49"/>
<path d="M84.9198 300.397C87.8193 298.2 91.2139 295.256 92.4911 292.285C92.8362 291.482 93.4243 288.248 93.312 286.235C93.8705 286.406 94.5152 286.585 95.2271 286.761C100.525 288.067 109.55 289.206 114.556 285.934C114.885 291.316 114.201 296.372 114.201 296.372C114.201 296.372 96.6274 312.191 89.4923 311.466C89.0353 311.419 85.4747 309.878 85.0741 309.743C82.1064 308.738 82.0599 308.588 80.6174 307.886C78.8252 307.013 79.1241 307.132 78.9517 306.85C79.7934 303.928 82.8892 301.507 84.9198 300.397Z" fill="#F6C09C"/>
<path d="M89.8478 258.185C87.254 243.795 91.0574 236.408 93.2834 234.514L114.851 247.041C114.538 253.118 114.23 261.927 114.201 270.527L109.255 275.09C106.782 277.371 105.58 276.572 105.289 275.887C106.123 273.37 107.292 268.413 105.295 268.729C102.799 269.125 101.214 271.541 101.114 274.017C101.014 276.493 102.182 278.276 100.934 278.474C99.9353 278.632 95.3316 282.052 93.1546 283.742C92.758 278.101 91.8852 269.489 89.8478 258.185Z" fill="#F6C09C"/>
<path d="M114.556 285.934C109.55 289.206 100.525 288.067 95.2271 286.761C96.264 284.956 99.5858 281.148 104.578 280.357C105.244 282.286 107.682 285.79 112.104 284.381C112.474 283.404 112.09 281.057 107.589 279.487L114.207 274.204C114.235 278.385 114.34 282.412 114.556 285.934Z" fill="#F6C09C"/>
<path d="M95.2271 286.761C94.5152 286.585 93.8705 286.406 93.312 286.235C93.27 285.482 93.2185 284.651 93.1546 283.742C95.3316 282.052 99.9353 278.632 100.934 278.474C102.182 278.276 101.014 276.493 101.114 274.017C101.214 271.541 102.799 269.125 105.295 268.729C107.292 268.413 106.123 273.37 105.289 275.887C105.58 276.572 106.782 277.371 109.255 275.09L114.201 270.527C114.197 271.76 114.199 272.988 114.207 274.204L107.589 279.487C112.09 281.057 112.474 283.404 112.104 284.381C107.682 285.79 105.244 282.286 104.578 280.357C99.5858 281.148 96.264 284.956 95.2271 286.761Z" fill="#808A49"/>
<path d="M90.8425 301.133C90.8825 300.142 93.6762 298.519 90.4295 292.931C89.0822 293.538 86.3873 295.992 86.3855 300.953C86.385 302.371 86.9447 303.501 87.8245 304.393C90.021 306.621 94.2121 307.369 96.6574 307.437L98.8239 306.167L99.8544 305.217C98.8906 304.516 96.4677 303.096 94.4868 303.016C93.5944 302.98 91.7885 302.625 91.0461 301.523C90.9645 301.402 90.8958 301.272 90.8425 301.133Z" fill="#808A49"/>
<path d="M119.242 267.308C120.524 268.285 119.696 269.696 119.122 270.28L114.207 274.204C114.199 272.988 114.197 271.76 114.201 270.527L115.953 268.912C116.515 267.97 117.96 266.332 119.242 267.308Z" fill="#808A49"/>
<path d="M114.201 296.372C114.201 296.372 114.037 299.647 114.037 299.713C114.037 303.015 96.9454 315.683 91.377 316.054C88.379 316.594 81.9084 316.273 79.1209 311.597C78.2464 310.13 78.5669 308.185 78.9517 306.85M114.201 296.372C114.201 296.372 114.885 291.316 114.556 285.934M114.201 296.372C114.201 296.372 96.6274 312.191 89.4923 311.466C89.0353 311.419 85.4747 309.878 85.0741 309.743M85.0741 309.743C82.1064 308.738 82.0599 308.588 80.6174 307.886M85.0741 309.743L86.3855 308.965L87.3025 308.257M78.9517 306.85C79.7934 303.928 82.8892 301.507 84.9198 300.397C87.8193 298.2 91.2139 295.256 92.4911 292.285C92.8362 291.482 93.4243 288.248 93.312 286.235M78.9517 306.85C79.1241 307.132 78.8252 307.013 80.6174 307.886M84.3314 304.915L82.3309 306.167L80.6174 307.886M85.8169 306.771L84.7027 307.514L82.8458 308.965M93.312 286.235C93.8705 286.406 94.5152 286.585 95.2271 286.761M93.312 286.235C93.27 285.482 93.2185 284.651 93.1546 283.742M114.556 285.934C109.55 289.206 100.525 288.067 95.2271 286.761M114.556 285.934C114.34 282.412 114.235 278.385 114.207 274.204M95.2271 286.761C96.264 284.956 99.5858 281.148 104.578 280.357M104.578 280.357C105.244 282.286 107.682 285.79 112.104 284.381C112.474 283.404 112.09 281.057 107.589 279.487M104.578 280.357C104.578 280.357 105.209 279.359 105.866 279.169C106.524 278.979 107.589 279.487 107.589 279.487M107.589 279.487L114.207 274.204M115.953 268.912C116.515 267.97 117.96 266.332 119.242 267.308C120.524 268.285 119.696 269.696 119.122 270.28L114.207 274.204M115.953 268.912C114.751 270.02 111.728 272.808 109.255 275.09M115.953 268.912L114.201 270.527M109.255 275.09C106.782 277.371 105.58 276.572 105.289 275.887M109.255 275.09L114.201 270.527M105.289 275.887C106.123 273.37 107.292 268.413 105.295 268.729C102.799 269.125 101.214 271.541 101.114 274.017C101.014 276.493 102.182 278.276 100.934 278.474M105.289 275.887C105.289 275.887 104.421 277.552 103.43 278.079C102.558 278.542 100.934 278.474 100.934 278.474M100.934 278.474C99.9353 278.632 95.3316 282.052 93.1546 283.742M93.1546 283.742C92.758 278.101 91.8852 269.489 89.8478 258.185C87.254 243.795 91.0574 236.408 93.2834 234.514L114.851 247.041C114.538 253.118 114.23 261.927 114.201 270.527M114.201 270.527C114.197 271.76 114.199 272.988 114.207 274.204M107.343 304.031C104.504 302.676 97.6257 300.216 92.8235 301.212C92.3192 301.44 91.4419 301.726 91.0461 301.523M91.0461 301.523C90.9131 301.455 90.8345 301.332 90.8425 301.133M91.0461 301.523C91.7885 302.625 93.5944 302.98 94.4868 303.016C96.4677 303.096 98.8906 304.516 99.8544 305.217L98.8239 306.167L96.6574 307.437C94.2121 307.369 90.021 306.621 87.8245 304.393M91.0461 301.523C90.9645 301.402 90.8958 301.272 90.8425 301.133M90.8425 301.133C90.8825 300.142 93.6762 298.519 90.4295 292.931C89.0822 293.538 86.3873 295.992 86.3855 300.953C86.385 302.371 86.9447 303.501 87.8245 304.393M87.8245 304.393L91.0602 301.885" stroke="#606B3B" stroke-width="0.5"/>
<path d="M106.22 95.8203C106.591 100.772 105.7 111.122 99.1634 112.904C92.6268 114.687 50.1396 114.885 29.7131 114.761C28.1038 113.895 24.4393 112.162 22.6566 112.162H2.60162C1.61124 112.285 -0.146667 112.979 0.744675 114.761C1.39154 116.055 6.38042 117.036 10.772 117.619C10.2603 118.776 9.78235 121.144 11.1434 122.769C10.4007 123.442 9.36075 125.16 11.1434 126.646C10.772 127.389 10.6235 129.246 13.0004 130.731C15.3773 132.217 17.9523 131.35 18.9427 130.731C21.1711 130.855 26.2963 130.731 28.9704 129.246C31.6444 127.76 46.1783 130.855 53.111 132.588C61.9006 133.703 80.1485 135.931 82.8225 135.931C85.4965 135.931 105.973 137.912 115.877 138.902L136.303 135.931L157.1 165.271C161.062 172.08 177.156 183.026 176.043 185.326C170.472 196.84 174.557 196.097 174.557 196.097C174.557 196.097 178.197 193.646 179.385 194.24C180.871 194.983 181.614 199.439 179.014 200.925C178.271 201.349 181.094 205.456 184.956 202.782C186.318 202.782 189.338 202.41 190.527 200.925C191.641 200.677 193.944 199.662 194.241 197.582C195.355 196.963 197.509 195.28 197.212 193.497C196.841 191.269 197.212 188.669 194.612 184.212C192.533 180.647 190.28 178.27 189.413 177.527C186.937 167.995 168.615 152.272 165.644 146.33C162.672 140.388 156.235 129.989 153.388 125.532C149.302 121.323 139.646 112.756 133.704 112.162C127.761 111.567 126.523 108.448 126.647 106.962L125.904 95.8203H106.22Z" fill="#F6C09C"/>
<path d="M15.2288 118.104C14.0064 118.002 12.4319 117.839 10.772 117.619M21.1711 114.761C19.1903 116.123 15.3031 119.367 15.6002 121.447C15.9716 124.046 17.0857 124.046 17.8285 123.675C18.4228 123.378 21.0473 121.075 22.2853 119.961C22.5329 121.57 23.6966 124.64 26.3706 124.046M10.772 117.619C6.38042 117.036 1.39154 116.055 0.744676 114.761C-0.14667 112.979 1.61124 112.285 2.60162 112.162C8.54393 112.162 20.874 112.162 22.6567 112.162C24.4393 112.162 28.1038 113.895 29.7131 114.761C50.1396 114.885 92.6268 114.687 99.1634 112.904C105.7 111.122 106.591 100.772 106.22 95.8203H125.904L126.647 106.962C126.523 108.448 127.761 111.567 133.704 112.162C139.646 112.756 149.302 121.323 153.388 125.532C156.235 129.989 162.672 140.388 165.644 146.33C168.615 152.272 186.937 167.995 189.413 177.527C190.28 178.27 192.533 180.647 194.612 184.212C197.212 188.669 196.841 191.269 197.212 193.497C197.509 195.28 195.355 196.963 194.241 197.582M10.772 117.619C10.2603 118.776 9.78235 121.144 11.1434 122.769M11.1434 122.769C11.4286 123.11 11.7944 123.418 12.2576 123.675C14.9317 125.16 18.8189 123.303 20.4283 122.189V122.932C20.4283 124.351 20.2023 125.375 19.9122 126.085M11.1434 122.769C10.4006 123.442 9.36075 125.16 11.1434 126.646M11.1434 126.646C12.9261 128.132 17.0857 127.76 18.9427 127.389C19.2013 127.259 19.595 126.86 19.9122 126.085M11.1434 126.646C10.772 127.389 10.6235 129.246 13.0004 130.731C15.3773 132.217 17.9523 131.35 18.9427 130.731M18.9427 130.731C19.4652 130.481 20.3906 129.201 19.9122 126.085M18.9427 130.731C21.1711 130.855 26.2963 130.731 28.9704 129.246C31.6444 127.76 46.1783 130.855 53.111 132.588C61.9006 133.703 80.1484 135.931 82.8225 135.931C85.4965 135.931 105.973 137.912 115.877 138.902L136.303 135.931L157.1 165.271C161.062 172.08 177.156 183.026 176.043 185.326C170.472 196.839 174.557 196.097 174.557 196.097C174.557 196.097 178.197 193.646 179.385 194.24C180.871 194.983 181.614 199.439 179.014 200.925C178.271 201.349 181.094 205.456 184.956 202.782M184.956 202.782C185.451 202.41 186.442 200.702 186.442 196.839M184.956 202.782C186.318 202.782 189.338 202.41 190.527 200.925M190.527 200.925V196.839M190.527 200.925C191.641 200.677 193.944 199.662 194.241 197.582M194.241 197.582C194.538 195.502 194.612 193.745 194.612 193.126" stroke="#B7947D"/>
<path d="M148.465 167.73C152.884 169.147 163.848 176.809 172.357 196.119C182.993 220.256 186.313 225.639 194.116 228.692C198.695 230.484 189.822 231.414 180.24 231.047C173.494 230.789 166.396 229.889 163.393 228.195C163.169 228.069 162.938 227.937 162.701 227.8C156.791 224.388 147.105 217.887 142.851 214.96C144.066 209.391 142.605 193.159 127.047 172.778C130.968 172.385 134.931 171.743 138.849 170.789C142.102 169.996 145.324 168.989 148.465 167.73Z" fill="#859A55"/>
<path fill-rule="evenodd" clip-rule="evenodd" d="M101.952 172.32C101.199 182.716 97.1276 200.224 87.6084 214.9C81.8296 223.809 73.9998 231.961 63.5901 237.48C59.485 239.657 54.9788 241.424 50.0389 242.667C54.5614 235.085 63.7401 217.538 64.2751 208.004C64.9439 196.086 76.5444 176.425 84.4828 168.607C88.4758 169.915 94.6195 171.384 101.952 172.32Z" fill="#D9C6A7"/>
<path fill-rule="evenodd" clip-rule="evenodd" d="M101.952 172.32C101.199 182.716 97.1276 200.224 87.6084 214.9C81.8296 223.809 73.9998 231.961 63.5901 237.48C59.485 239.657 54.9788 241.424 50.0389 242.667C54.5614 235.085 63.7401 217.538 64.2751 208.004C64.9439 196.086 76.5444 176.425 84.4828 168.607C88.4758 169.915 94.6195 171.384 101.952 172.32Z" fill="url(#paint0_linear_1090_137)"/>
<path d="M121.561 224.146C115.413 217.586 105.101 206.267 102.902 198.424C101.143 192.15 101.574 178.147 101.952 172.32C107.821 173.068 114.453 173.475 121.352 173.181C123.234 173.101 125.135 172.969 127.047 172.778C142.605 193.159 144.066 209.391 142.851 214.96C142.756 216.53 142.664 218.57 142.618 220.723L142.614 220.933C142.504 226.385 142.687 232.486 143.813 233.508C145.325 234.882 135.16 232.53 127.524 228.425C125.15 227.148 123.02 225.702 121.561 224.146Z" fill="#98A754"/>
<path d="M102.902 198.424C105.101 206.267 115.413 217.586 121.561 224.146C123.02 225.702 125.15 227.148 127.524 228.425C126.979 233.104 125.828 240.687 124.194 247.719C122.734 254.002 120.889 259.845 118.745 262.783L115.767 267.592C110.707 263.838 102.427 255.426 96.1126 243.489C92.8844 237.386 90.1696 230.363 88.6605 222.57C88.1802 220.089 87.8221 217.531 87.6084 214.9C97.1276 200.224 101.199 182.716 101.952 172.32C101.574 178.147 101.143 192.15 102.902 198.424Z" fill="url(#paint1_linear_1090_137)"/>
<path d="M87.6084 214.9C87.8221 217.531 88.1802 220.089 88.6605 222.57C87.7362 227.732 84.0751 237.536 76.0792 246.823C71.991 251.571 66.7697 256.184 60.2015 259.972C60.9985 253.02 62.792 238.789 63.5901 237.48C73.9998 231.961 81.8296 223.809 87.6084 214.9Z" fill="url(#paint2_linear_1090_137)"/>
<path d="M142.851 214.96C147.105 217.887 156.791 224.388 162.701 227.8L161.441 236.164L160.019 248.344L158.856 258.31C155.639 257.248 149.601 253.957 142.829 247.632C137.847 242.979 132.469 236.684 127.524 228.425C135.16 232.53 145.325 234.882 143.813 233.508C142.687 232.486 142.504 226.385 142.614 220.933L142.618 220.723C142.664 218.57 142.756 216.53 142.851 214.96Z" fill="#859A55"/>
<path d="M142.851 214.96C147.105 217.887 156.791 224.388 162.701 227.8L161.441 236.164L160.019 248.344L158.856 258.31C155.639 257.248 149.601 253.957 142.829 247.632C137.847 242.979 132.469 236.684 127.524 228.425C135.16 232.53 145.325 234.882 143.813 233.508C142.687 232.486 142.504 226.385 142.614 220.933L142.618 220.723C142.664 218.57 142.756 216.53 142.851 214.96Z" fill="url(#paint3_linear_1090_137)"/>
<path d="M112.585 134.156C118.14 128.858 133.081 111.262 136.677 112.532C147.194 116.247 149.77 118.822 149.631 125.562C146.361 127.322 148.607 129.893 150.104 131.921C151.464 133.763 149.968 152.641 148.805 164.401C140.536 167.412 120.778 171.394 98.9057 167.611C98.2978 167.506 97.6883 167.395 97.0774 167.278C96.1096 167.092 95.1381 166.891 94.1639 166.673C95.7889 160.567 98.2864 154.926 100.989 150.061C102.7 146.981 104.494 144.212 106.2 141.832C108.689 138.362 110.992 135.722 112.585 134.156Z" fill="url(#paint4_linear_1090_137)"/>
<path fill-rule="evenodd" clip-rule="evenodd" d="M84.4828 168.607L85.1983 164.208C88.1977 165.195 91.1938 166.01 94.1639 166.673C95.1381 166.891 96.1096 167.092 97.0774 167.278C97.6883 167.395 98.2978 167.506 98.9057 167.611C120.778 171.394 140.536 167.412 148.805 164.401C148.687 165.592 148.573 166.71 148.465 167.73C145.324 168.989 142.102 169.996 138.849 170.789C134.931 171.743 130.968 172.385 127.047 172.778C125.135 172.969 123.234 173.101 121.352 173.181C114.453 173.475 107.821 173.068 101.952 172.32C94.6195 171.384 88.4758 169.915 84.4828 168.607ZM88.6605 222.57C87.7362 227.732 84.0751 237.536 76.0792 246.823C76.5057 251.97 78.6684 262.696 79.6963 267.416C88.4853 262.431 94.3025 249.387 96.1126 243.489C92.8844 237.386 90.1696 230.363 88.6605 222.57ZM124.194 247.719C125.828 240.687 126.979 233.104 127.524 228.425C132.469 236.684 137.847 242.979 142.829 247.632L139.786 267.831C135.696 264.137 126.851 254.943 124.194 247.719ZM160.019 248.344L170.147 255.489C170.675 255.861 171.394 255.428 171.312 254.787L169.796 243.031C179.461 248.844 192.386 252.794 189.749 250.194C186.872 247.357 182.21 236.247 180.24 231.047C173.494 230.789 166.396 229.889 163.393 228.195C163.169 228.069 162.938 227.937 162.701 227.8L161.441 236.164L160.019 248.344Z" fill="#859A55"/>
<path d="M98.9057 112.532C102.541 115.289 106.019 120.397 106.019 120.397C106.019 120.397 111.925 131.052 112.585 134.156C110.992 135.722 108.689 138.362 106.2 141.832C104.494 144.212 102.7 146.981 100.989 150.061C98.2864 154.926 95.7889 160.567 94.1639 166.673C91.1938 166.01 88.1977 165.195 85.1983 164.208L89.8811 112.532L98.9057 112.532Z" fill="#859A55"/>
<path d="M98.9057 112.532C102.541 115.289 106.019 120.397 106.019 120.397C106.019 120.397 111.925 131.052 112.585 134.156C110.992 135.722 108.689 138.362 106.2 141.832C104.494 144.212 102.7 146.981 100.989 150.061C98.2864 154.926 95.7889 160.567 94.1639 166.673C91.1938 166.01 88.1977 165.195 85.1983 164.208L89.8811 112.532L98.9057 112.532Z" fill="url(#paint5_linear_1090_137)"/>
<path d="M112.585 134.156C111.925 131.052 106.019 120.397 106.019 120.397C106.019 120.397 102.541 115.289 98.9057 112.532L89.8811 112.532L85.1983 164.208M112.585 134.156C118.14 128.858 133.081 111.262 136.677 112.532C147.194 116.247 149.77 118.822 149.631 125.562C146.361 127.322 148.607 129.893 150.104 131.921C151.464 133.763 149.968 152.641 148.805 164.401M112.585 134.156C110.992 135.722 108.689 138.362 106.2 141.832M148.465 167.73C152.884 169.147 163.848 176.809 172.357 196.119C182.993 220.256 186.313 225.639 194.116 228.692C198.695 230.484 189.822 231.414 180.24 231.047M148.465 167.73C148.573 166.71 148.687 165.592 148.805 164.401M148.465 167.73C145.324 168.989 142.102 169.996 138.849 170.789M142.851 214.96C144.066 209.391 142.605 193.159 127.047 172.778M142.851 214.96C147.105 217.887 156.791 224.388 162.701 227.8M142.851 214.96C142.756 216.53 142.664 218.57 142.618 220.723M143.813 233.508C145.325 234.882 135.16 232.53 127.524 228.425M143.813 233.508C142.687 232.486 142.504 226.385 142.614 220.933M143.813 233.508C142.673 232.472 142.499 226.227 142.618 220.723M102.902 198.424C105.101 206.267 115.413 217.586 121.561 224.146C123.02 225.702 125.15 227.148 127.524 228.425M102.902 198.424C101.143 192.15 101.574 178.147 101.952 172.32M102.902 198.424C102.829 207.553 104.554 230.147 112.033 247.5M101.952 172.32C101.199 182.716 97.1276 200.224 87.6084 214.9M101.952 172.32C94.6195 171.384 88.4758 169.915 84.4828 168.607M101.952 172.32C107.821 173.068 114.453 173.475 121.352 173.181M84.4828 168.607C76.5444 176.425 64.9439 196.086 64.2751 208.004C63.7401 217.538 54.5614 235.085 50.0389 242.667C54.9788 241.424 59.485 239.657 63.5901 237.48M84.4828 168.607L85.1983 164.208M84.4828 168.607C91.6725 170.961 105.835 173.841 121.352 173.181M148.805 164.401C140.536 167.412 120.778 171.394 98.9057 167.611M85.1983 164.208C88.1977 165.195 91.1938 166.01 94.1639 166.673M135.444 139.478C131.854 144.195 122.704 154.234 114.828 156.653C106.952 159.072 100.931 164.967 98.9057 167.611M98.9057 167.611C98.2978 167.506 97.6883 167.395 97.0774 167.278M127.737 130.805C122.345 137.504 110.306 151.766 105.28 155.215C100.253 158.664 97.7171 164.694 97.0774 167.278M97.0774 167.278C96.1096 167.092 95.1381 166.891 94.1639 166.673M94.1639 166.673C95.7889 160.567 98.2864 154.926 100.989 150.061M100.989 150.061C99.0741 147.394 94.8878 141.931 93.4626 141.416M100.989 150.061C102.7 146.981 104.494 144.212 106.2 141.832M106.2 141.832C104.503 138.071 100.609 129.873 98.6132 127.168M87.4007 171.676C83.2958 177.317 74.7719 191.182 73.5165 201.509C72.5642 206.999 69.9099 218.468 66.9116 220.42M174.233 218.561C169.644 213.292 159.671 200.047 156.494 189.222C153.318 178.396 143.407 172.422 138.849 170.789M138.849 170.789C134.931 171.743 130.968 172.385 127.047 172.778M127.047 172.778C125.135 172.969 123.234 173.101 121.352 173.181M180.24 231.047C173.494 230.789 166.396 229.889 163.393 228.195C163.169 228.069 162.938 227.937 162.701 227.8M180.24 231.047C182.21 236.247 186.872 247.357 189.749 250.194C192.386 252.794 179.461 248.844 169.796 243.031M161.441 236.164L162.701 227.8M161.441 236.164C163.187 238.549 166.275 240.914 169.796 243.031M161.441 236.164L160.019 248.344M127.524 228.425C132.469 236.684 137.847 242.979 142.829 247.632M127.524 228.425C126.979 233.104 125.828 240.687 124.194 247.719M87.6084 214.9C87.8221 217.531 88.1802 220.089 88.6605 222.57M87.6084 214.9C81.8296 223.809 73.9998 231.961 63.5901 237.48M88.6605 222.57C90.1696 230.363 92.8844 237.386 96.1126 243.489M88.6605 222.57C87.7362 227.732 84.0751 237.536 76.0792 246.823M63.5901 237.48C62.792 238.789 60.9985 253.02 60.2015 259.972C66.7697 256.184 71.991 251.571 76.0792 246.823M96.1126 243.489C102.427 255.426 110.707 263.838 115.767 267.592L118.745 262.783C120.889 259.845 122.734 254.002 124.194 247.719M96.1126 243.489C94.3025 249.387 88.4853 262.431 79.6963 267.416C78.6684 262.696 76.5057 251.97 76.0792 246.823M142.829 247.632C149.601 253.957 155.639 257.248 158.856 258.31L160.019 248.344M142.829 247.632L139.786 267.831C135.696 264.137 126.851 254.943 124.194 247.719M169.796 243.031L171.312 254.787C171.394 255.428 170.675 255.861 170.147 255.489L160.019 248.344M142.614 220.933C144.964 225.276 149.78 234.286 152.168 240.375M142.614 220.933C142.615 220.863 142.616 220.793 142.618 220.723M142.614 220.933L142.618 220.723M121.352 173.181C123.964 178.284 121.157 185.362 118.829 189.932C115.629 196.21 130.486 205.835 132.874 210.452" stroke="#78864C" stroke-width="0.5"/>
<path d="M118.014 23.3965C97.2515 23.3966 80.4166 40.3068 80.4166 61.1699C80.4167 82.033 97.2515 98.9433 118.014 98.9434C138.777 98.9434 155.612 82.033 155.612 61.1699C155.612 40.3068 138.777 23.3965 118.014 23.3965Z" fill="#F6C09C" stroke="#DBA988" stroke-width="0.740453"/>
<ellipse cx="5.62483" cy="5.09751" rx="5.62483" ry="5.09751" transform="matrix(-1 0 0 1 136.998 57.4775)" fill="#F7F7F6"/>
<ellipse cx="4.21862" cy="4.57018" rx="4.21862" ry="4.57018" transform="matrix(-1 0 0 1 134.185 57.8291)" fill="#2F2725"/>
<ellipse cx="0.742788" cy="1.11418" rx="0.742788" ry="1.11418" transform="matrix(-1 0 0 1 132.955 60.1641)" fill="#F7F7F6"/>
<path d="M137.005 63.6432C136.839 60.7775 134.771 56.4648 129.267 58.1802" stroke="#2F2725" stroke-width="1.48091" stroke-linecap="round"/>
<path d="M130.142 50.687C130.047 50.6587 129.955 50.6095 129.888 50.5346C129.821 50.4598 129.783 50.3665 129.783 50.2705C129.783 50.1745 129.821 50.0812 129.888 50.0064C129.955 49.9315 130.047 49.8823 130.142 49.854C130.142 49.854 130.142 49.854 130.142 49.854C130.305 49.8077 130.478 49.769 130.642 49.7359C132.153 49.448 133.702 49.575 135.149 50.0917C136.586 50.6063 137.939 51.5586 138.795 52.8764C138.889 53.0222 138.977 53.171 139.058 53.3238C139.103 53.4126 139.13 53.5128 139.122 53.6133C139.114 53.7138 139.073 53.8055 139.003 53.8715C138.933 53.9375 138.839 53.9741 138.739 53.9766C138.638 53.9791 138.539 53.9465 138.453 53.8967C138.453 53.8967 138.453 53.8967 138.453 53.8967C138.317 53.8199 138.181 53.7474 138.045 53.6771C136.822 53.0518 135.624 52.6284 134.396 52.1817C133.167 51.7437 131.913 51.2847 130.585 50.8312C130.441 50.7819 130.287 50.7332 130.142 50.687Z" fill="#8C6B50"/>
<ellipse cx="5.62483" cy="5.09751" rx="5.62483" ry="5.09751" transform="matrix(-1 0 0 1 100.435 54.6641)" fill="#F7F7F6"/>
<ellipse cx="4.21862" cy="4.57018" rx="4.21862" ry="4.57018" transform="matrix(-1 0 0 1 97.6266 55.0156)" fill="#2F2725"/>
<ellipse cx="0.742788" cy="1.11418" rx="0.742788" ry="1.11418" transform="matrix(-1 0 0 1 96.568 57.1934)" fill="#F7F7F6"/>
<path d="M100.447 60.8307C100.281 57.965 98.2128 53.6523 92.7085 55.3677" stroke="#2F2725" stroke-width="1.48091" stroke-linecap="round"/>
<path d="M89.3672 50.7327C89.2742 50.7681 89.1716 50.7846 89.0725 50.766C88.9735 50.7475 88.8867 50.6964 88.8284 50.6201C88.7701 50.5438 88.7437 50.4467 88.7518 50.3463C88.76 50.2458 88.8029 50.1512 88.8615 50.0707C88.8615 50.0707 88.8615 50.0707 88.8615 50.0707C88.9622 49.9355 89.0768 49.7993 89.187 49.6734C90.2128 48.5275 91.5206 47.6882 92.984 47.2205C94.4383 46.7569 96.0921 46.6918 97.5717 47.2198C97.7355 47.2781 97.8953 47.3433 98.0525 47.4156C98.1422 47.4587 98.2247 47.5218 98.2794 47.6065C98.3341 47.6912 98.3567 47.7893 98.3414 47.8841C98.3261 47.9789 98.2738 48.0649 98.1952 48.128C98.1167 48.1912 98.0185 48.2252 97.9198 48.2379C97.9198 48.2379 97.9198 48.2379 97.9198 48.2379C97.7647 48.2598 97.6129 48.2844 97.4621 48.3111C96.1108 48.5567 94.9013 48.9479 93.6546 49.3382C92.4121 49.7362 91.1373 50.1325 89.8066 50.5784C89.6624 50.6266 89.5104 50.6815 89.3672 50.7327Z" fill="#8C6B50"/>
<ellipse cx="5.775" cy="3.85" rx="5.775" ry="3.85" transform="matrix(-1 0 0 1 140.611 69.5195)" fill="#F2A088"/>
<ellipse cx="4.4" cy="3.575" rx="4.4" ry="3.575" transform="matrix(-1 0 0 1 96.0602 67.3193)" fill="#F2A088"/>
<path d="M121.697 81.5713C119.142 83.1731 112.591 85.1449 106.688 80.8739" stroke="#8C6B50" stroke-width="1.48091" stroke-linecap="round" stroke-linejoin="round"/>
<path d="M115.045 70.6191C115.018 70.6781 114.983 70.7347 114.934 70.7765C114.885 70.8182 114.827 70.8416 114.767 70.8416C114.707 70.8416 114.649 70.8182 114.6 70.7765C114.552 70.7347 114.516 70.6781 114.49 70.6191C114.49 70.6191 114.49 70.6191 114.49 70.6191C114.428 70.4986 114.359 70.3993 114.287 70.3108C113.996 69.9671 113.69 69.8033 113.334 69.5824C112.076 68.8705 109.805 68.7785 109.11 70.2916C109.062 70.4036 109.024 70.5133 108.994 70.6394C108.979 70.7068 108.943 70.7699 108.889 70.8144C108.835 70.8588 108.767 70.8811 108.698 70.876C108.63 70.871 108.566 70.8391 108.519 70.7871C108.471 70.7352 108.446 70.6675 108.44 70.5986C108.44 70.5986 108.44 70.5986 108.44 70.5986C108.432 70.4386 108.435 70.2889 108.456 70.1255C108.945 67.6032 112.151 67.1892 114.094 68.3117C114.68 68.6467 115.192 69.3611 115.152 70.1042C115.144 70.2861 115.106 70.4568 115.045 70.6191Z" fill="#8C6B50"/>
<path d="M145.699 212.858C145.872 213.499 146.564 213.845 147.179 213.597C152.037 211.642 168.296 205.06 178.897 200.332L178.994 200.268C179.107 200.172 179.273 199.987 179.493 199.698C179.71 199.415 179.969 199.044 180.273 198.589C180.431 198.092 180.425 197.544 180.332 196.995C180.237 196.437 180.058 195.897 179.896 195.437C179.785 195.121 179.65 194.905 179.471 194.771C179.296 194.642 179.044 194.565 178.645 194.6C177.822 194.672 176.487 195.204 174.266 196.463L174.256 196.469L174.245 196.473L172.31 197.335L146.238 211.598C145.789 211.843 145.566 212.364 145.699 212.858Z" fill="#926841" stroke="#4B4B4B" stroke-width="0.5"/>
<path d="M124.953 42.4062C121.518 38.9733 119.338 31.4781 118.677 28.1597C118.677 25.9283 118.644 21.4655 118.512 21.4655C118.38 21.4655 114.383 19.8635 112.401 19.0625L112.566 24.7268C115.374 38.8016 129.247 46.6973 124.953 42.4062Z" fill="#5C4837" stroke="#524133" stroke-width="0.5"/>
<path d="M124.403 8.38244C132.348 5.74866 151.604 5.71354 165.065 26.6433C181.89 52.8056 168.044 83.0063 166.291 85.2889C165.646 86.1294 163.789 87.47 161.559 89.4595C163.981 92.8101 166.95 100.846 159.456 106.184C150.089 112.856 152.841 110.046 150.365 113.734C150.285 112.777 149.739 112.393 149.291 112.329C148.167 111.67 147.315 110.781 146.682 109.746C144.078 105.483 145.183 98.7347 146.311 95.2973C139.301 86.1668 147.187 80.7474 148.765 77.938C150.342 75.1287 152.625 63.8997 151.398 64.2508C150.171 64.602 146.837 60.1802 146.311 54.9126C145.891 50.6985 135.737 44.2604 130.713 41.5681C118.795 30.8925 114.53 22.0195 113.887 18.9175C116.131 13.2988 121.832 9.553 124.403 8.38244Z" fill="#5C4837"/>
<path d="M149.291 112.329C149.739 112.393 150.285 112.777 150.365 113.734C152.841 110.046 150.089 112.856 159.456 106.184C161.042 108.794 162.288 115.192 155.074 120.444C154.849 120.608 154.615 120.771 154.373 120.933C152.641 121.41 149.529 122.8 147.749 125.147C145.177 122.847 143.818 120.488 143.245 118.299C142.417 115.141 143.224 112.336 144.383 110.573C144.689 110.197 145.577 109.505 146.682 109.746C147.315 110.781 148.167 111.67 149.291 112.329Z" fill="#5C4837"/>
<path d="M147.749 125.147C149.529 122.8 152.641 121.41 154.373 120.933C154.615 120.771 154.849 120.608 155.074 120.444C156.243 122.948 156.722 128.904 149.291 132.697C149.164 132.75 148.988 132.807 148.765 132.86C147.757 133.102 145.798 133.272 143.156 132.697C141.205 130.376 140.609 127.837 140.714 125.498C140.85 122.458 142.172 119.754 143.245 118.299C143.818 120.488 145.177 122.847 147.749 125.147Z" fill="#5C4837"/>
<path d="M143.156 132.697C145.798 133.272 147.757 133.102 148.765 132.86C148.297 133.684 147.258 135.577 146.837 136.56C146.545 136.794 145.225 136.946 142.28 135.682C137.653 131.468 139.308 127.137 140.714 125.498C140.609 127.837 141.205 130.376 143.156 132.697Z" fill="#5C4837"/>
<path d="M142.28 135.682C145.225 136.946 146.545 136.794 146.837 136.56C148.706 139.779 151.324 147.411 146.837 152.187C146.837 152.889 146.381 153.521 144.559 150.431C142.806 147.271 138.599 134.102 142.28 135.682Z" fill="#5C4837"/>
<path d="M151.043 106.184C152.815 98.1967 157.734 92.8729 161.559 89.4595M146.311 95.2973C139.301 86.1668 147.187 80.7474 148.765 77.938C150.342 75.1287 152.625 63.8997 151.398 64.2508C150.171 64.602 146.837 60.1802 146.311 54.9126C145.891 50.6985 135.737 44.2604 130.713 41.5681C118.795 30.8925 114.53 22.0195 113.887 18.9175C116.131 13.2988 121.832 9.553 124.403 8.38244C132.348 5.74866 151.604 5.71354 165.065 26.6433C181.89 52.8056 168.044 83.0063 166.291 85.2889C165.646 86.1294 163.789 87.47 161.559 89.4595M146.311 95.2973C147.627 97.4419 147.749 99.0901 150.643 101.013M146.311 95.2973C145.183 98.7347 144.078 105.483 146.682 109.746M149.291 117.421C150.179 115.706 150.431 114.524 150.365 113.734M161.559 89.4595C163.981 92.8101 166.95 100.846 159.456 106.184M159.456 106.184C150.089 112.856 152.841 110.046 150.365 113.734M159.456 106.184C161.042 108.794 162.288 115.192 155.074 120.444M150.365 113.734C150.285 112.777 149.739 112.393 149.291 112.329C148.167 111.67 147.315 110.781 146.682 109.746M146.486 127.956C146.668 126.902 147.127 125.966 147.749 125.147M147.749 125.147C149.529 122.8 152.641 121.41 154.373 120.933C154.615 120.771 154.849 120.608 155.074 120.444M147.749 125.147C145.177 122.847 143.818 120.488 143.245 118.299M155.074 120.444C156.243 122.948 156.722 128.904 149.291 132.697C149.164 132.75 148.988 132.807 148.765 132.86M148.765 132.86C147.757 133.102 145.798 133.272 143.156 132.697C141.205 130.376 140.609 127.837 140.714 125.498M148.765 132.86C148.297 133.684 147.258 135.577 146.837 136.56M146.837 136.56C146.545 136.794 145.225 136.946 142.28 135.682M146.837 136.56C148.706 139.779 151.324 147.411 146.837 152.187C146.837 152.889 146.381 153.521 144.559 150.431C142.806 147.271 138.599 134.102 142.28 135.682M142.28 135.682C137.653 131.468 139.308 127.137 140.714 125.498M146.682 109.746C145.577 109.505 144.689 110.197 144.383 110.573C143.224 112.336 142.417 115.141 143.245 118.299M143.245 118.299C142.172 119.754 140.85 122.458 140.714 125.498" stroke="#524133" stroke-width="0.5"/>
<path d="M124.618 7.98649C117.202 4.12445 102.709 2.66679 86.0968 21.1184C65.3319 44.183 76.449 78.7423 77.8134 81.2692C78.3158 82.1997 79.9337 83.8161 81.8148 86.1307C78.8926 89.042 74.6828 96.4775 81.2217 102.929C89.3952 110.994 87.1294 107.788 88.9831 111.814C89.2145 110.884 89.8142 110.594 90.2662 110.603C91.4794 110.133 92.4612 109.395 93.2504 108.476C96.4987 104.697 97.1883 103.999 96.6241 100.435C97.4766 100.435 101.854 96.2329 99.5777 94.3133C97.1206 92.2412 86.0968 87.6536 82.942 69.6192C82.7223 68.3635 83.1633 52.1331 84.5219 47.032C85.6088 42.9511 95.2463 35.9226 100.63 34.0752C114.086 25.4708 113.334 22.4934 114.463 19.5426C113.146 13.6533 126.966 9.54945 124.618 7.98649Z" fill="#5C4837"/>
<path d="M90.2662 110.603C89.8142 110.594 89.2145 110.884 88.9831 111.814C87.1294 107.788 89.3952 110.994 81.2217 102.929C79.241 105.246 76.9923 111.344 83.2683 117.666C83.4644 117.864 83.6687 118.062 83.8817 118.26C85.5137 119.006 88.3611 120.872 89.7425 123.466C92.645 121.613 94.3613 119.508 95.2762 117.445C96.5963 114.468 96.2477 111.579 95.3856 109.658C95.144 109.239 94.3787 108.416 93.2504 108.476C92.4612 109.395 91.4794 110.133 90.2662 110.603Z" fill="#5C4837"/>
<path d="M89.7425 123.466C88.3611 120.872 85.5137 119.006 83.8817 118.26C83.6687 118.062 83.4644 117.864 83.2683 117.666C81.7167 119.945 80.2943 125.731 87.0178 130.652C87.1345 130.724 87.2992 130.808 87.5103 130.896C88.4657 131.295 90.3707 131.776 93.0671 131.632C95.3616 129.659 96.3547 127.255 96.6241 124.936C96.9742 121.922 96.1024 119.049 95.2762 117.445C94.3613 119.508 92.645 121.613 89.7425 123.466Z" fill="#5C4837"/>
<path d="M93.0671 131.632C90.3707 131.776 88.4657 131.295 87.5103 130.896C87.8399 131.782 88.5635 133.811 88.8215 134.846C89.0722 135.123 90.35 135.484 93.4553 134.71C98.6903 131.301 97.7491 126.774 96.6241 124.936C96.3547 127.255 95.3616 129.659 93.0671 131.632Z" fill="#5C4837"/>
<path d="M93.4553 134.71C90.35 135.484 89.0722 135.123 88.8215 134.846C86.4645 137.716 82.6662 144.811 86.3292 150.229C86.2172 150.92 86.5657 151.615 88.8561 148.865C91.0885 146.033 97.3369 133.743 93.4553 134.71Z" fill="#5C4837"/>
<path d="M89.5179 104.273C89.0446 96.1283 85.0423 90.1018 81.8148 86.1307M96.6241 100.435C97.4766 100.435 101.854 96.2329 99.5777 94.3133C97.1206 92.2412 86.0968 87.6536 82.942 69.6192C82.7223 68.3635 83.1633 52.1331 84.5219 47.032C85.6088 42.9511 95.2463 35.9226 100.63 34.0752C114.086 25.4708 113.334 22.4934 114.463 19.5426C113.146 13.6533 126.966 9.54945 124.618 7.98649C117.202 4.12445 102.709 2.66679 86.0968 21.1184C65.3319 44.183 76.449 78.7423 77.8134 81.2692C78.3158 82.1997 79.9337 83.8161 81.8148 86.1307M96.6241 100.435C96.0155 101.637 93.381 97.946 90.526 98.0511M96.6241 100.435C97.1883 103.999 96.4987 104.697 93.2504 108.476M89.4541 115.615C88.8521 113.784 88.792 112.581 88.9831 111.814M81.8148 86.1307C78.8926 89.042 74.6828 96.4775 81.2217 102.929M81.2217 102.929C89.3952 110.994 87.1294 107.788 88.9831 111.814M81.2217 102.929C79.241 105.246 76.9923 111.344 83.2683 117.666M88.9831 111.814C89.2145 110.884 89.8142 110.594 90.2662 110.603C91.4794 110.133 92.4612 109.395 93.2504 108.476M90.5393 126.433C90.5285 125.366 90.2249 124.372 89.7425 123.466M89.7425 123.466C88.3611 120.872 85.5137 119.006 83.8817 118.26C83.6687 118.062 83.4644 117.864 83.2683 117.666M89.7425 123.466C92.645 121.613 94.3613 119.508 95.2762 117.445M83.2683 117.666C81.7167 119.945 80.2943 125.731 87.0178 130.652C87.1345 130.724 87.2992 130.808 87.5103 130.896M87.5103 130.896C88.4657 131.295 90.3707 131.776 93.0671 131.632C95.3616 129.659 96.3547 127.255 96.6241 124.936M87.5103 130.896C87.8399 131.782 88.5635 133.811 88.8215 134.846M88.8215 134.846C89.0722 135.123 90.35 135.484 93.4553 134.71M88.8215 134.846C86.4645 137.716 82.6662 144.811 86.3292 150.229C86.2172 150.92 86.5657 151.615 88.8561 148.865C91.0885 146.033 97.3369 133.743 93.4553 134.71M93.4553 134.71C98.6903 131.301 97.7491 126.774 96.6241 124.936M93.2504 108.476C94.3787 108.416 95.144 109.239 95.3856 109.658C96.2477 111.579 96.5963 114.468 95.2762 117.445M95.2762 117.445C96.1024 119.049 96.9742 121.922 96.6241 124.936" stroke="#524133" stroke-width="0.5"/>
<path d="M145.679 209.98C144.827 209.132 143.506 209.535 142.209 210.349C144.026 213.278 144.626 214.429 145.451 217.886C145.451 217.886 147.176 217.184 147.692 216.373C148.138 215.672 147.978 214.855 147.978 214.855C147.872 213.796 146.53 210.827 145.679 209.98Z" fill="#B1885B" stroke="#4B4B4B" stroke-width="0.5"/>
<path d="M129.893 214.509L142.25 210.474L144.346 213.306L145.376 217.658L133.466 225.453L123.84 224.689L129.893 214.509Z" fill="url(#paint6_radial_1090_137)" stroke="#2B5120"/>
<defs>
<linearGradient id="paint0_linear_1090_137" x1="122.698" y1="112.467" x2="122.698" y2="267.831" gradientUnits="userSpaceOnUse">
<stop offset="0.514423" stop-color="#D9D7A7"/>
<stop offset="1" stop-color="#C8D29E"/>
</linearGradient>
<linearGradient id="paint1_linear_1090_137" x1="122.698" y1="112.467" x2="122.698" y2="267.831" gradientUnits="userSpaceOnUse">
<stop offset="0.514423" stop-color="#D9D7A7"/>
<stop offset="1" stop-color="#C8D29E"/>
</linearGradient>
<linearGradient id="paint2_linear_1090_137" x1="122.698" y1="112.467" x2="122.698" y2="267.831" gradientUnits="userSpaceOnUse">
<stop offset="0.514423" stop-color="#D9D7A7"/>
<stop offset="1" stop-color="#C8D29E"/>
</linearGradient>
<linearGradient id="paint3_linear_1090_137" x1="122.698" y1="112.467" x2="122.698" y2="267.831" gradientUnits="userSpaceOnUse">
<stop offset="0.514423" stop-color="#D9D7A7"/>
<stop offset="1" stop-color="#C8D29E"/>
</linearGradient>
<linearGradient id="paint4_linear_1090_137" x1="122.698" y1="112.467" x2="122.698" y2="267.831" gradientUnits="userSpaceOnUse">
<stop offset="0.25" stop-color="#8EA45B"/>
<stop offset="1" stop-color="#859A55"/>
</linearGradient>
<linearGradient id="paint5_linear_1090_137" x1="122.698" y1="112.467" x2="122.698" y2="267.831" gradientUnits="userSpaceOnUse">
<stop offset="0.25" stop-color="#8EA45B"/>
<stop offset="1" stop-color="#859A55"/>
</linearGradient>
<radialGradient id="paint6_radial_1090_137" cx="0" cy="0" r="1" gradientUnits="userSpaceOnUse" gradientTransform="translate(134.151 219.174) rotate(-18.0824) scale(11.5132 5.75661)">
<stop stop-color="#66D742"/>
<stop offset="0.514423" stop-color="#66BA4C"/>
<stop offset="1" stop-color="#668E5A"/>
</radialGradient>
</defs>
</svg>
