<svg width="36" height="36" viewBox="0 0 36 36" fill="none" xmlns="http://www.w3.org/2000/svg">
<path d="M17.9986 4.7168C12.7052 4.7168 8.39844 9.0787 8.39844 14.4402C8.39844 19.832 17.1793 30.7875 17.2679 30.8975C17.6679 31.3939 18.3291 31.3939 18.729 30.8975C18.8176 30.7875 27.598 19.8303 27.598 14.4402C27.5982 9.07898 23.2917 4.7168 17.9986 4.7168ZM17.9986 19.6036C15.183 19.6036 12.8928 17.2875 12.8928 14.4405C12.8928 11.5934 15.1833 9.27727 17.9986 9.27727C20.8139 9.27727 23.1044 11.5934 23.1044 14.4405C23.1044 17.2875 20.8142 19.6036 17.9986 19.6036Z" fill="#6A994E"/>
</svg>
