<svg width="273" height="273" viewBox="0 0 273 273" fill="none" xmlns="http://www.w3.org/2000/svg">
<g clip-path="url(#clip0_1224_3474)">
<path d="M0.16 131.28C0.16 69.4941 0.16 38.6811 19.418 19.4201C38.515 0.162109 69.489 0.162109 131.118 0.162109H142.031C203.817 0.162109 234.63 0.162109 253.731 19.4201C272.828 38.5171 272.828 69.4911 272.828 131.12V142.033C272.828 203.819 272.828 234.632 253.731 253.733C234.634 272.83 203.66 272.83 142.031 272.83H131.118C69.332 272.83 38.519 272.83 19.258 253.733C0 234.636 0 203.662 0 142.033L0.16 131.28Z" fill="#FF7700"/>
<path d="M169.311 119.25C160.965 127.595 149.411 132.731 136.573 132.731C123.735 132.731 112.18 127.595 103.835 119.25C95.4894 110.905 90.3535 99.35 90.3535 86.512C90.3535 73.674 95.4889 62.119 103.835 53.774C112.18 45.4289 123.735 40.293 136.573 40.293C149.411 40.293 160.966 45.4284 169.311 53.774C177.656 62.1196 182.792 73.674 182.792 86.512C182.792 99.35 177.656 110.905 169.311 119.25ZM136.573 65.649C130.795 65.649 125.5 68.0562 121.809 71.7473C117.957 75.5989 115.71 80.7343 115.71 86.5113C115.71 92.2883 118.117 97.5843 121.809 101.275C125.66 105.127 130.796 107.374 136.573 107.374C142.35 107.374 147.646 104.966 151.337 101.275C155.188 97.4237 157.435 92.2883 157.435 86.5113C157.435 80.7343 155.028 75.4383 151.337 71.7473C147.645 67.8957 142.35 65.649 136.573 65.649ZM185.199 133.052L198.68 151.508C199.321 152.471 199.161 153.755 198.359 154.397C186.965 163.705 173.645 169.964 159.843 173.173L186.002 223.565C186.804 225.009 185.681 226.774 184.076 226.774H156.152C155.349 226.774 154.547 226.293 154.226 225.49L136.573 183.925L118.92 225.49C118.599 226.293 117.797 226.774 116.994 226.774H88.9102C87.3054 226.774 86.182 225.009 86.9844 223.565L113.303 173.173C99.5014 169.963 86.1814 163.704 74.7874 154.397C73.985 153.755 73.8245 152.471 74.4664 151.508L88.1074 133.052C88.9098 132.089 90.3542 131.929 91.3171 132.731C104.156 143.644 119.883 150.705 136.734 150.705C153.585 150.705 169.312 143.644 182.151 132.731C182.954 131.768 184.398 131.929 185.2 133.052H185.199Z" fill="white"/>
</g>
<defs>
<clipPath id="clip0_1224_3474">
<rect width="273" height="273" fill="white"/>
</clipPath>
</defs>
</svg>
