<svg width="22" height="22" viewBox="0 0 22 22" fill="none" xmlns="http://www.w3.org/2000/svg">
<path d="M14.1873 11.8158L15.576 19.6313C15.5916 19.7234 15.5787 19.8179 15.539 19.9024C15.4994 19.9869 15.4348 20.0573 15.3541 20.1041C15.2734 20.151 15.1803 20.1721 15.0873 20.1646C14.9942 20.1571 14.9057 20.1213 14.8335 20.0622L11.5519 17.5991C11.3934 17.4807 11.201 17.4168 11.0032 17.4168C10.8055 17.4168 10.613 17.4807 10.4546 17.5991L7.16743 20.0612C7.09531 20.1203 7.00689 20.156 6.91397 20.1635C6.82105 20.171 6.72805 20.15 6.64737 20.1033C6.5667 20.0566 6.50219 19.9864 6.46244 19.902C6.4227 19.8177 6.40961 19.7233 6.42493 19.6313L7.81277 11.8158" stroke="black" stroke-width="2" stroke-linecap="round" stroke-linejoin="round"/>
<path d="M11 12.8333C14.0376 12.8333 16.5 10.3709 16.5 7.33334C16.5 4.29578 14.0376 1.83334 11 1.83334C7.96243 1.83334 5.5 4.29578 5.5 7.33334C5.5 10.3709 7.96243 12.8333 11 12.8333Z" stroke="black" stroke-width="2" stroke-linecap="round" stroke-linejoin="round"/>
</svg>
