<svg width="70" height="70" viewBox="0 0 70 70" fill="none" xmlns="http://www.w3.org/2000/svg">
<rect x="0.5" y="0.5" width="69" height="69" rx="10.5526" fill="#F4F7F2"/>
<rect x="0.5" y="0.5" width="69" height="69" rx="10.5526" stroke="#CACACA"/>
<path d="M56.2239 38.1815C56.5793 39.0566 56.1581 40.0542 55.2831 40.4098L50.5303 42.3427L54.9291 44.9858C55.7494 45.4543 56.0347 46.4991 55.5662 47.3194C55.0978 48.1397 54.0529 48.425 53.2326 47.9565C53.2105 47.9439 53.1887 47.9309 53.1673 47.9173L48.7688 45.2745L49.2935 50.3804C49.3749 51.3215 48.6778 52.1505 47.7366 52.2318C46.8167 52.3113 45.9998 51.6464 45.8908 50.7295L45.1039 43.0723L36.6982 38.0229V47.8289L42.8561 52.4473C43.6119 53.0141 43.7651 54.0862 43.1983 54.842C42.6315 55.5978 41.5593 55.751 40.8035 55.1842L36.6983 52.1053V57.2369C36.6983 58.1816 35.9325 58.9475 34.9877 58.9475C34.043 58.9475 33.2772 58.1816 33.2772 57.2369V52.1053L29.172 55.1842C28.4162 55.751 27.344 55.5978 26.7772 54.842C26.2104 54.0862 26.3636 53.0141 27.1194 52.4473L33.2773 47.8289V38.0229L24.8719 43.0736L24.0851 50.7307C24.0387 51.1819 23.815 51.5962 23.4632 51.8825C23.1115 52.1688 22.6604 52.3037 22.2091 52.2576C21.27 52.1617 20.5863 51.3228 20.6822 50.3836L20.6824 50.3816L21.2072 45.2757L16.8087 47.9185C16.0101 48.4231 14.9536 48.1847 14.449 47.386C13.9444 46.5874 14.1829 45.5308 14.9815 45.0263C15.003 45.0128 15.0248 44.9996 15.0469 44.987L19.4457 42.3439L14.6928 40.411C13.8234 40.0414 13.4183 39.0371 13.7878 38.1677C14.1491 37.3178 15.1197 36.9082 15.9806 37.2421L23.1111 40.1417L31.6672 34.9999L23.1104 29.8586L15.9799 32.7591C15.0991 33.1007 14.1081 32.6639 13.7665 31.783C13.4324 30.9221 13.8422 29.9513 14.6921 29.5902L19.4449 27.6573L15.0461 25.0133C14.2256 24.5448 13.9404 23.5 14.4089 22.6797C14.8773 21.8593 15.9222 21.5741 16.7425 22.0425C16.7646 22.0551 16.7864 22.0683 16.8079 22.0818L21.2063 24.7246L20.6816 19.6186C20.5852 18.6788 21.2689 17.8388 22.2087 17.7424C23.1484 17.646 23.9885 18.3297 24.0848 19.2695L24.8717 26.9266L33.2772 31.977V22.171L27.1192 17.5526C26.3632 16.986 26.2095 15.914 26.7761 15.1579C27.3426 14.4019 28.4147 14.2483 29.1707 14.8148L29.172 14.8157L33.2772 17.8946V12.7632C33.2772 11.8185 34.043 11.0526 34.9877 11.0526C35.9325 11.0526 36.6983 11.8185 36.6983 12.7632V17.8948L40.8035 14.8159C41.5593 14.2491 42.6315 14.4023 43.1983 15.1581C43.7651 15.9138 43.6119 16.986 42.8561 17.5528L36.6982 22.171V31.9771L45.1035 26.9263L45.8904 19.2691C46.0019 18.331 46.8528 17.661 47.7908 17.7724C48.7077 17.8813 49.3726 18.6983 49.2932 19.6182L48.7684 24.7241L53.1669 22.0813C53.9655 21.5768 55.0221 21.8152 55.5266 22.6138C56.0311 23.4125 55.7927 24.469 54.9941 24.9735C54.9726 24.9871 54.9508 25.0002 54.9287 25.0128L50.5299 27.6559L55.2828 29.5888C56.1522 29.9584 56.5573 30.9627 56.1877 31.8321C55.8264 32.682 54.8558 33.0917 53.9949 32.7577L46.8644 29.8581L38.3083 34.9999L46.8651 40.1412L53.9956 37.2416C54.8693 36.8853 55.8662 37.3046 56.2225 38.1783L56.2239 38.1815Z" fill="#6A994E"/>
</svg>
