<svg width="180" height="111" viewBox="0 0 180 111" fill="none" xmlns="http://www.w3.org/2000/svg">
<path d="M2.11367 1.04451C2.13825 0.492775 1.71091 0.0255746 1.15917 0.000991166C0.607432 -0.0235922 0.140232 0.40375 0.115648 0.955488L1.11466 1L2.11367 1.04451ZM175.876 110.471C176.412 110.603 176.954 110.275 177.086 109.739L179.238 101C179.37 100.464 179.042 99.9222 178.506 99.7901C177.97 99.658 177.428 99.9857 177.296 100.522L175.383 108.29L167.615 106.377C167.079 106.245 166.537 106.573 166.405 107.109C166.273 107.645 166.6 108.187 167.137 108.319L175.876 110.471ZM1.11466 1L0.115648 0.955488C-1.01959 26.4342 6.27338 41.0094 18.8936 49.6456C31.3841 58.193 48.9235 60.7799 67.8832 62.8068C106.039 66.886 150.314 68.7719 175.259 110.018L176.115 109.5L176.97 108.982C151.415 66.7281 105.94 64.864 68.0958 60.8182C49.0556 58.7826 32.0325 56.2133 20.023 47.995C8.14327 39.8656 0.998805 26.0658 2.11367 1.04451L1.11466 1Z" fill="#6A994E"/>
</svg>
