<svg width="44" height="114" viewBox="0 0 44 114" fill="none" xmlns="http://www.w3.org/2000/svg">
<path d="M18.3244 1.87479C18.8075 1.60716 18.9822 0.998574 18.7146 0.515463C18.4469 0.0323525 17.8384 -0.142334 17.3552 0.125289L17.8398 1.00004L18.3244 1.87479ZM6.63228 51.2265L5.7433 51.6844L6.63228 51.2265ZM19.3767 113.683C19.9219 113.771 20.4352 113.401 20.5232 112.855L21.9563 103.97C22.0442 103.425 21.6735 102.912 21.1282 102.824C20.583 102.736 20.0697 103.106 19.9818 103.652L18.7079 111.55L10.81 110.276C10.2647 110.188 9.75145 110.559 9.66351 111.104C9.57557 111.649 9.94628 112.162 10.4915 112.25L19.3767 113.683ZM17.8398 1.00004L17.3552 0.125289C12.3761 2.88355 5.86981 8.75604 2.40815 17.4681C-1.07113 26.2244 -1.43467 37.7507 5.7433 51.6844L6.63228 51.2265L7.52125 50.7685C0.586029 37.306 1.01809 26.3826 4.2668 18.2066C7.53311 9.98621 13.6872 4.44359 18.3244 1.87479L17.8398 1.00004ZM6.63228 51.2265L5.7433 51.6844C10.1958 60.3274 14.6882 65.5367 19.0143 68.3094C23.3794 71.1071 27.5343 71.3944 31.1471 70.2741C34.7162 69.1673 37.6738 66.7155 39.7856 64.1625C41.8778 61.6331 43.2584 58.8581 43.5279 56.9717L42.538 56.8303L41.548 56.6889C41.3511 58.0672 40.2155 60.5049 38.2445 62.8877C36.2929 65.247 33.6402 67.4071 30.5547 68.3638C27.5129 69.307 23.9688 69.1094 20.0935 66.6256C16.1791 64.1168 11.8895 59.2481 7.52125 50.7685L6.63228 51.2265ZM42.538 56.8303L43.5279 56.9717C44.0737 53.1515 43.3861 47.1523 39.4552 42.9426C35.446 38.649 28.3535 36.5076 16.7303 39.8889L17.0096 40.8491L17.289 41.8093C28.4959 38.5491 34.6865 40.7661 37.9934 44.3075C41.3785 47.9328 42.04 53.2449 41.548 56.6889L42.538 56.8303ZM17.0096 40.8491L16.7303 39.8889C10.7621 41.6251 6.50111 45.2554 3.85568 50.2027C1.22383 55.1247 0.218068 61.2944 0.618855 68.1143C1.42004 81.7476 7.85317 98.228 18.7252 113.282L19.5359 112.696L20.3466 112.111C9.63376 97.2775 3.38868 81.1551 2.61541 67.997C2.22897 61.4212 3.21193 55.648 5.61937 51.1458C8.01323 46.669 11.8421 43.3938 17.289 41.8093L17.0096 40.8491Z" fill="#6A994E"/>
</svg>
