<svg width="180" height="111" viewBox="0 0 180 111" fill="none" xmlns="http://www.w3.org/2000/svg">
<path d="M177.153 1.04451C177.129 0.492775 177.556 0.0255746 178.108 0.000991166C178.66 -0.0235922 179.127 0.40375 179.151 0.955488L178.152 1L177.153 1.04451ZM3.39149 110.471C2.85524 110.603 2.31345 110.275 2.18138 109.739L0.0292816 101C-0.102783 100.464 0.224884 99.9222 0.761139 99.7901C1.29741 99.658 1.83919 99.9857 1.97125 100.522L3.88425 108.29L11.6522 106.377C12.1884 106.245 12.7302 106.573 12.8623 107.109C12.9943 107.645 12.6667 108.187 12.1304 108.319L3.39149 110.471ZM178.152 1L179.151 0.955488C180.287 26.4342 172.994 41.0094 160.373 49.6456C147.883 58.193 130.344 60.7799 111.384 62.8068C73.228 66.886 28.953 68.7719 4.00806 110.018L3.15237 109.5L2.29669 108.982C27.8519 66.7281 73.327 64.864 111.171 60.8182C130.211 58.7826 147.235 56.2133 159.244 47.995C171.124 39.8656 178.268 26.0658 177.153 1.04451L178.152 1Z" fill="#6A994E"/>
</svg>
